<svg width="31" height="31" viewBox="0 0 31 31" fill="none" xmlns="http://www.w3.org/2000/svg">
<path d="M4.06315 14.0314C4.4458 9.65441 7.39675 6.01363 11.4003 4.62475C11.1148 5.0981 10.8565 5.62198 10.6256 6.18286C9.76737 8.26707 9.22353 11.0154 9.12708 14.0314H4.06315ZM15.0001 2.0835C7.86645 2.0835 2.0835 7.86649 2.0835 15.0002C2.0835 22.1338 7.86645 27.9168 15.0001 27.9168C22.1338 27.9168 27.9168 22.1338 27.9168 15.0002C27.9168 7.86648 22.1338 2.0835 15.0001 2.0835ZM15.0001 4.021C15.3377 4.021 15.7499 4.18307 16.221 4.66693C16.695 5.15386 17.1665 5.90882 17.5831 6.92056C18.3297 8.73364 18.8386 11.2219 18.9346 14.0314H11.0656C11.1616 11.2219 11.6706 8.73364 12.4171 6.92056C12.8337 5.90882 13.3053 5.15386 13.7793 4.66693C14.2503 4.18307 14.6625 4.021 15.0001 4.021ZM20.8732 14.0314C20.7767 11.0154 20.2329 8.26707 19.3747 6.18286C19.1437 5.62198 18.8855 5.0981 18.5999 4.62475C22.6035 6.01363 25.5545 9.65441 25.9371 14.0314H20.8732ZM18.9346 15.9689C18.8386 18.7785 18.3297 21.2667 17.5831 23.0798C17.1665 24.0915 16.695 24.8465 16.221 25.3334C15.7499 25.8173 15.3377 25.9793 15.0001 25.9793C14.6625 25.9793 14.2503 25.8173 13.7793 25.3334C13.3053 24.8465 12.8337 24.0915 12.4171 23.0798C11.6706 21.2667 11.1616 18.7785 11.0656 15.9689H18.9346ZM18.5999 25.3756C18.8855 24.9022 19.1437 24.3783 19.3747 23.8175C20.2329 21.7333 20.7767 18.9849 20.8732 15.9689H25.9371C25.5545 20.3459 22.6035 23.9867 18.5999 25.3756ZM11.4003 25.3756C7.39675 23.9867 4.4458 20.3459 4.06315 15.9689H9.12708C9.22353 18.9849 9.76737 21.7333 10.6256 23.8175C10.8565 24.3783 11.1148 24.9022 11.4003 25.3756Z" fill="#79BE70"/>
</svg>
