<svg width="16" height="16" viewBox="0 0 16 16" fill="none" xmlns="http://www.w3.org/2000/svg">
<g clip-path="url(#clip0_1_16648)">
<path d="M7.99995 16.1188C6.29369 16.1157 4.68432 15.6157 3.34369 14.6657C2.09369 13.7813 1.11244 12.547 0.512439 11.0938C-0.0875615 9.64384 -0.268812 8.07822 -0.00943635 6.56884C0.268689 4.95009 1.04994 3.45634 2.25619 2.2501C3.69682 0.743847 5.79057 -0.118652 7.99995 -0.118652C10.2093 -0.118652 12.3031 0.743847 13.7468 2.24697C14.95 3.45322 15.7343 4.94697 16.0093 6.56572C16.2687 8.07509 16.0875 9.64071 15.4875 11.0907C14.8875 12.5407 13.9062 13.7751 12.6562 14.6626C11.3156 15.6126 9.7062 16.1157 7.99995 16.1188ZM7.99995 1.36885C4.34682 1.36885 1.37494 4.34072 1.37494 7.99384C1.56244 12.522 4.94057 14.5845 7.99995 14.5845C11.0593 14.5845 14.4375 12.522 14.625 7.99072C14.625 4.33759 11.6531 1.36885 7.99995 1.36885ZM10.4687 11.2126C10.2687 11.2126 10.0812 11.1345 9.93745 10.9938L7.99995 9.05634H7.99682C7.54995 9.05634 7.1687 8.79384 7.00932 8.37197C6.8562 7.97197 6.94682 7.54072 7.24995 7.24072V3.61884C7.2687 3.10635 7.65307 2.87197 7.99995 2.87197C8.34682 2.87197 8.72807 3.10322 8.74995 3.61259V7.24072C8.94995 7.44072 9.06245 7.71259 9.06245 7.99697L10.9999 9.93446C11.1406 10.0751 11.2187 10.2657 11.2187 10.4657C11.2187 10.6657 11.1406 10.8532 10.9999 10.997C10.8562 11.1345 10.6687 11.2126 10.4687 11.2126Z" fill="black"/>
<path d="M8.0002 16.0563C6.30645 16.0532 4.70958 15.5563 3.37833 14.6157C2.13771 13.7376 1.16584 12.5126 0.568963 11.072C-0.0247854 9.63134 -0.206035 8.07509 0.0502144 6.57822C0.325214 4.97197 1.10334 3.49072 2.29709 2.29072C3.72833 0.800097 5.80645 -0.0561523 8.0002 -0.0561523C10.1939 -0.0561523 12.2721 0.800097 13.7033 2.29072C14.8971 3.48759 15.6752 4.96884 15.9502 6.57822C16.2064 8.07822 16.0283 9.63134 15.4314 11.0688C14.8346 12.5095 13.8627 13.7345 12.6221 14.6126C11.2908 15.5563 9.69395 16.0532 8.0002 16.0563ZM8.0002 1.30635C4.31271 1.30635 1.31271 4.30634 1.31271 7.99384C1.50334 12.5626 4.9127 14.6438 8.0002 14.6438C11.0877 14.6438 14.5002 12.5626 14.6877 7.98759C14.6877 4.30634 11.6877 1.30635 8.0002 1.30635ZM10.4689 11.1501C10.2846 11.1501 10.1127 11.0782 9.98145 10.9501L8.0252 8.99384C8.01582 8.99384 8.00645 8.99384 7.99707 8.99384C7.5752 8.99384 7.21895 8.74697 7.06583 8.35009C6.91895 7.96259 7.00958 7.55009 7.30958 7.26884V3.61884C7.32833 3.14697 7.67832 2.93447 7.99707 2.93447C8.31582 2.93447 8.66582 3.14697 8.68457 3.61572V7.26572C8.89082 7.45947 9.00645 7.73759 8.99707 8.01884L10.9533 9.97509C11.0846 10.1063 11.1533 10.2782 11.1533 10.4626C11.1533 10.647 11.0814 10.8188 10.9533 10.9501C10.8252 11.0782 10.6533 11.1501 10.4689 11.1501Z" fill="black"/>
<path d="M8.0002 16.0563C6.30645 16.0532 4.70958 15.5563 3.37833 14.6157C2.13771 13.7376 1.16584 12.5126 0.568963 11.072C-0.0247854 9.63134 -0.206035 8.07509 0.0502144 6.57822C0.325214 4.97197 1.10334 3.49072 2.29709 2.29072C3.72833 0.800097 5.80645 -0.0561523 8.0002 -0.0561523C10.1939 -0.0561523 12.2721 0.800097 13.7033 2.29072C14.8971 3.48759 15.6752 4.96884 15.9502 6.57822C16.2064 8.07822 16.0283 9.63134 15.4314 11.0688C14.8346 12.5095 13.8627 13.7345 12.6221 14.6126C11.2908 15.5563 9.69395 16.0532 8.0002 16.0563ZM8.0002 1.30635C4.31271 1.30635 1.31271 4.30634 1.31271 7.99384C1.50334 12.5626 4.9127 14.6438 8.0002 14.6438C11.0877 14.6438 14.5002 12.5626 14.6877 7.98759C14.6877 4.30634 11.6877 1.30635 8.0002 1.30635ZM10.4689 11.1501C10.2846 11.1501 10.1127 11.0782 9.98145 10.9501L8.0252 8.99384C8.01582 8.99384 8.00645 8.99384 7.99707 8.99384C7.5752 8.99384 7.21895 8.74697 7.06583 8.35009C6.91895 7.96259 7.00958 7.55009 7.30958 7.26884V3.61884C7.32833 3.14697 7.67832 2.93447 7.99707 2.93447C8.31582 2.93447 8.66582 3.14697 8.68457 3.61572V7.26572C8.89082 7.45947 9.00645 7.73759 8.99707 8.01884L10.9533 9.97509C11.0846 10.1063 11.1533 10.2782 11.1533 10.4626C11.1533 10.647 11.0814 10.8188 10.9533 10.9501C10.8252 11.0782 10.6533 11.1501 10.4689 11.1501Z" fill="black"/>
<path d="M8.00008 15.9938C0.900085 15.9844 -2.67179 7.36254 2.34383 2.33442C5.32196 -0.7687 10.6782 -0.7687 13.6563 2.33442C18.6719 7.36254 15.1001 15.9844 8.00008 15.9938ZM8.00008 1.2438C4.27821 1.2438 1.25008 4.27192 1.25008 7.99379C1.62196 16.95 14.3813 16.9469 14.7501 7.99379C14.7501 4.2688 11.7219 1.2438 8.00008 1.2438ZM10.9094 10.0188L8.93758 8.04379C8.95633 7.75317 8.83133 7.47192 8.62508 7.29379C8.62508 7.28754 8.62508 7.28129 8.62508 7.27504V3.6188C8.5907 2.79067 7.40633 2.79067 7.37508 3.6188V7.27504C7.37508 7.28129 7.37508 7.28754 7.37508 7.29379C6.72195 7.87817 7.1657 8.97504 8.0532 8.92817L10.0282 10.9032C10.2719 11.1469 10.6688 11.1469 10.9126 10.9032C11.1563 10.6594 11.1563 10.2625 10.9094 10.0188Z" fill="black"/>
</g>
<defs>
<clipPath id="clip0_1_16648">
<rect width="16" height="16" fill="white"/>
</clipPath>
</defs>
</svg>
