<svg width="16" height="16" viewBox="0 0 16 16" fill="none" xmlns="http://www.w3.org/2000/svg">
<path fill-rule="evenodd" clip-rule="evenodd" d="M7.99984 14.0001C11.3135 14.0001 13.9998 11.3138 13.9998 8.00008C13.9998 4.68637 11.3135 2.00008 7.99984 2.00008C4.68613 2.00008 1.99984 4.68637 1.99984 8.00008C1.99984 11.3138 4.68613 14.0001 7.99984 14.0001ZM7.99984 15.3334C12.0499 15.3334 15.3332 12.0502 15.3332 8.00008C15.3332 3.94999 12.0499 0.666748 7.99984 0.666748C3.94975 0.666748 0.666504 3.94999 0.666504 8.00008C0.666504 12.0502 3.94975 15.3334 7.99984 15.3334Z" fill="black"/>
<path d="M9.88546 5.17165C10.1458 4.9113 10.5679 4.9113 10.8283 5.17165C11.0886 5.432 11.0886 5.85411 10.8283 6.11446L6.11422 10.8285C5.85387 11.0889 5.43176 11.0889 5.17141 10.8285C4.91106 10.5682 4.91106 10.146 5.17141 9.8857L9.88546 5.17165Z" fill="black"/>
<path d="M5.17141 6.11446C4.91106 5.85411 4.91106 5.432 5.17141 5.17165C5.43176 4.9113 5.85387 4.9113 6.11422 5.17165L10.8283 9.8857C11.0886 10.146 11.0886 10.5682 10.8283 10.8285C10.5679 11.0889 10.1458 11.0889 9.88546 10.8285L5.17141 6.11446Z" fill="black"/>
</svg>
