<svg width="187" height="139" viewBox="0 0 187 139" fill="none" xmlns="http://www.w3.org/2000/svg">
<rect width="187" height="139" fill="white"/>
<rect x="30" y="42" width="127" height="34" rx="14.2576" fill="white" stroke="#79BE70" stroke-width="2"/>
<path d="M75.8641 55.7031C75.7967 55.0232 75.5073 54.495 74.996 54.1186C74.4847 53.7421 73.7907 53.5539 72.9142 53.5539C72.3186 53.5539 71.8157 53.6382 71.4055 53.8067C70.9953 53.9697 70.6807 54.1972 70.4615 54.4894C70.248 54.7816 70.1413 55.1131 70.1413 55.484C70.13 55.793 70.1946 56.0627 70.3351 56.2931C70.4812 56.5235 70.6807 56.7229 70.9335 56.8915C71.1864 57.0544 71.4786 57.1977 71.8101 57.3213C72.1416 57.4393 72.4956 57.5405 72.872 57.6248L74.4228 57.9956C75.1758 58.1642 75.8669 58.3889 76.4962 58.6699C77.1255 58.9508 77.6706 59.2964 78.1313 59.7065C78.592 60.1167 78.9488 60.5999 79.2017 61.1562C79.4602 61.7125 79.5922 62.3502 79.5978 63.0694C79.5922 64.1258 79.3225 65.0417 78.7887 65.8171C78.2605 66.5869 77.4964 67.1853 76.4962 67.6123C75.5017 68.0337 74.302 68.2444 72.8973 68.2444C71.5038 68.2444 70.2902 68.0309 69.2563 67.6039C68.228 67.1768 67.4245 66.5447 66.8458 65.7075C66.2727 64.8647 65.9721 63.8224 65.944 62.5806H69.4754C69.5148 63.1593 69.6805 63.6426 69.9727 64.0303C70.2705 64.4124 70.6666 64.7017 71.1611 64.8984C71.6612 65.0894 72.2259 65.1849 72.8552 65.1849C73.4733 65.1849 74.0099 65.095 74.465 64.9152C74.9257 64.7354 75.2825 64.4854 75.5354 64.1651C75.7882 63.8448 75.9147 63.4768 75.9147 63.061C75.9147 62.6733 75.7995 62.3474 75.5691 62.0833C75.3443 61.8192 75.0128 61.5945 74.5746 61.4091C74.1419 61.2236 73.6109 61.0551 72.9816 60.9034L71.1021 60.4314C69.6468 60.0774 68.4977 59.5239 67.6549 58.771C66.8121 58.0181 66.3935 57.0039 66.3991 55.7284C66.3935 54.6833 66.6716 53.7702 67.2335 52.9892C67.801 52.2082 68.5792 51.5985 69.5681 51.1602C70.5571 50.722 71.6808 50.5028 72.9395 50.5028C74.2206 50.5028 75.3387 50.722 76.2939 51.1602C77.2548 51.5985 78.0021 52.2082 78.5359 52.9892C79.0697 53.7702 79.345 54.6748 79.3618 55.7031H75.8641ZM88.8711 55.0541V57.7512H81.0749V55.0541H88.8711ZM82.8448 51.9525H86.4353V64.0218C86.4353 64.3534 86.4859 64.6118 86.587 64.7972C86.6881 64.977 86.8286 65.1035 87.0084 65.1765C87.1938 65.2496 87.4074 65.2861 87.649 65.2861C87.8175 65.2861 87.9861 65.272 88.1547 65.2439C88.3232 65.2102 88.4525 65.1849 88.5424 65.1681L89.1071 67.8399C88.9273 67.8961 88.6744 67.9607 88.3485 68.0337C88.0226 68.1124 87.6265 68.1601 87.1601 68.177C86.2948 68.2107 85.5363 68.0955 84.8845 67.8314C84.2383 67.5673 83.7354 67.1572 83.3758 66.6009C83.0162 66.0446 82.8392 65.3423 82.8448 64.4938V51.9525ZM94.9015 68.2444C94.0755 68.2444 93.3395 68.1011 92.6933 67.8146C92.0471 67.5224 91.5358 67.0926 91.1593 66.525C90.7885 65.9519 90.6031 65.2383 90.6031 64.3843C90.6031 63.665 90.7351 63.061 90.9992 62.5722C91.2633 62.0833 91.6229 61.69 92.078 61.3922C92.5332 61.0944 93.0501 60.8697 93.6288 60.7179C94.2132 60.5662 94.8257 60.4595 95.4662 60.3977C96.2191 60.319 96.826 60.246 97.2867 60.1785C97.7475 60.1055 98.0818 59.9987 98.2897 59.8583C98.4976 59.7178 98.6015 59.5099 98.6015 59.2346V59.184C98.6015 58.6502 98.433 58.2372 98.0958 57.945C97.7643 57.6529 97.2923 57.5068 96.6799 57.5068C96.0337 57.5068 95.5196 57.65 95.1375 57.9366C94.7554 58.2175 94.5026 58.5715 94.379 58.9986L91.0582 58.7289C91.2268 57.9422 91.5583 57.2623 92.0527 56.6892C92.5472 56.1105 93.185 55.6666 93.966 55.3575C94.7526 55.0429 95.6629 54.8856 96.6967 54.8856C97.416 54.8856 98.1043 54.9698 98.7617 55.1384C99.4247 55.307 100.012 55.5683 100.523 55.9222C101.04 56.2762 101.447 56.7314 101.745 57.2876C102.043 57.8383 102.192 58.4985 102.192 59.2683V68H98.787V66.2048H98.6858C98.4779 66.6093 98.1998 66.9661 97.8514 67.2752C97.5031 67.5786 97.0844 67.8174 96.5956 67.9916C96.1068 68.1601 95.5421 68.2444 94.9015 68.2444ZM95.9298 65.7665C96.4579 65.7665 96.9243 65.6626 97.3289 65.4547C97.7334 65.2411 98.0509 64.9546 98.2813 64.595C98.5116 64.2354 98.6268 63.828 98.6268 63.3729V61.999C98.5145 62.0721 98.3599 62.1395 98.1633 62.2013C97.9722 62.2575 97.7559 62.3109 97.5143 62.3615C97.2727 62.4064 97.0311 62.4486 96.7895 62.4879C96.5478 62.5216 96.3287 62.5525 96.132 62.5806C95.7106 62.6424 95.3426 62.7407 95.0279 62.8756C94.7133 63.0104 94.4689 63.1931 94.2947 63.4234C94.1205 63.6482 94.0334 63.9291 94.0334 64.2663C94.0334 64.7551 94.2104 65.1288 94.5644 65.3872C94.924 65.6401 95.3791 65.7665 95.9298 65.7665ZM104.978 68V55.0541H108.458V57.3129H108.593C108.829 56.5094 109.225 55.9026 109.782 55.4924C110.338 55.0766 110.979 54.8687 111.703 54.8687C111.883 54.8687 112.077 54.8799 112.285 54.9024C112.493 54.9249 112.675 54.9558 112.833 54.9951V58.181C112.664 58.1305 112.431 58.0855 112.133 58.0462C111.835 58.0068 111.563 57.9872 111.316 57.9872C110.787 57.9872 110.315 58.1024 109.9 58.3327C109.49 58.5575 109.164 58.8721 108.922 59.2767C108.686 59.6813 108.568 60.1476 108.568 60.6758V68H104.978ZM122.224 55.0541V57.7512H114.428V55.0541H122.224ZM116.198 51.9525H119.788V64.0218C119.788 64.3534 119.839 64.6118 119.94 64.7972C120.041 64.977 120.182 65.1035 120.361 65.1765C120.547 65.2496 120.76 65.2861 121.002 65.2861C121.17 65.2861 121.339 65.272 121.508 65.2439C121.676 65.2102 121.805 65.1849 121.895 65.1681L122.46 67.8399C122.28 67.8961 122.027 67.9607 121.701 68.0337C121.376 68.1124 120.979 68.1601 120.513 68.177C119.648 68.2107 118.889 68.0955 118.237 67.8314C117.591 67.5673 117.088 67.1572 116.729 66.6009C116.369 66.0446 116.192 65.3423 116.198 64.4938V51.9525Z" fill="#969C9E"/>
<path d="M60.7946 59.9312C60.7456 60.3137 60.7358 60.7157 60.6377 61.0785C57.441 72.1592 54.2247 83.2398 51.028 94.3205C50.8613 94.8794 50.6161 95.3795 50.018 95.5756C49.3316 95.8012 48.6746 95.4972 48.2823 94.7911C46.8997 92.2808 45.5171 89.7705 44.1344 87.2602C44.056 87.1229 43.9776 86.9759 43.8795 86.7994C43.752 86.9562 43.6343 87.0837 43.5363 87.2112C40.8495 90.6531 38.1627 94.0851 35.4759 97.527C34.8973 98.2722 34.4855 98.3213 33.7304 97.7427C32.1811 96.5366 30.6318 95.3305 29.0824 94.1145C28.3666 93.5556 28.3176 93.1241 28.8863 92.3985C31.6614 88.8488 34.4364 85.2991 37.2115 81.7395C37.3194 81.612 37.4174 81.4748 37.5547 81.2786C37.0938 81.1119 36.6624 80.9452 36.2309 80.7883C33.8579 79.9254 31.4751 79.0527 29.0922 78.1898C28.6804 78.0427 28.3372 77.8172 28.1411 77.4249C27.8273 76.7876 28.0528 76.0227 28.6608 75.6403C28.8079 75.552 28.9648 75.4638 29.1216 75.3853C38.8393 70.0313 48.5667 64.6773 58.2745 59.3037C59.059 58.8722 59.7356 58.7545 60.4612 59.3233C60.5691 59.5292 60.6868 59.7351 60.7946 59.9312Z" fill="white"/>
<path d="M60.7946 59.9312C60.7456 60.3137 60.7358 60.7157 60.6377 61.0785C57.441 72.1592 54.2247 83.2398 51.028 94.3205C50.8613 94.8794 50.6161 95.3795 50.018 95.5756C49.3316 95.8012 48.6746 95.4972 48.2823 94.7911C46.8997 92.2808 45.5171 89.7705 44.1344 87.2602C44.056 87.1229 43.9776 86.9759 43.8795 86.7994C43.752 86.9562 43.6343 87.0837 43.5363 87.2112C40.8495 90.6531 38.1627 94.0851 35.4759 97.527C34.8973 98.2722 34.4855 98.3213 33.7304 97.7427C32.1811 96.5366 30.6318 95.3305 29.0824 94.1145C28.3666 93.5556 28.3176 93.1242 28.8863 92.3985C31.6614 88.8488 34.4364 85.2991 37.2115 81.7395C37.3194 81.612 37.4174 81.4748 37.5547 81.2786C37.0938 81.1119 36.6624 80.9452 36.2309 80.7883C33.8579 79.9254 31.4751 79.0527 29.0922 78.1898C28.6804 78.0427 28.3372 77.8172 28.1411 77.4249C27.8273 76.7876 28.0528 76.0227 28.6608 75.6403C28.8079 75.552 28.9648 75.4638 29.1216 75.3853C38.8393 70.0313 48.5667 64.6773 58.2745 59.3037C59.059 58.8722 59.7356 58.7545 60.4612 59.3233C60.5691 59.5292 60.6868 59.7351 60.7946 59.9312Z" stroke="#6E7072" stroke-width="2" stroke-linecap="round" stroke-linejoin="round"/>
</svg>
