<svg width="31" height="32" viewBox="0 0 31 32" fill="none" xmlns="http://www.w3.org/2000/svg">
<path d="M4.06315 14.5314C4.4458 10.1544 7.39675 6.51363 11.4003 5.12475C11.1148 5.5981 10.8565 6.12198 10.6256 6.68286C9.76737 8.76707 9.22353 11.5154 9.12708 14.5314H4.06315ZM15.0001 2.5835C7.86645 2.5835 2.0835 8.36649 2.0835 15.5002C2.0835 22.6338 7.86645 28.4168 15.0001 28.4168C22.1338 28.4168 27.9168 22.6338 27.9168 15.5002C27.9168 8.36648 22.1338 2.5835 15.0001 2.5835ZM15.0001 4.521C15.3377 4.521 15.7499 4.68307 16.221 5.16693C16.695 5.65386 17.1665 6.40882 17.5831 7.42056C18.3297 9.23364 18.8386 11.7219 18.9346 14.5314H11.0656C11.1616 11.7219 11.6706 9.23364 12.4171 7.42056C12.8337 6.40882 13.3053 5.65386 13.7793 5.16693C14.2503 4.68307 14.6625 4.521 15.0001 4.521ZM20.8732 14.5314C20.7767 11.5154 20.2329 8.76707 19.3747 6.68286C19.1437 6.12198 18.8855 5.5981 18.5999 5.12475C22.6035 6.51363 25.5545 10.1544 25.9371 14.5314H20.8732ZM18.9346 16.4689C18.8386 19.2785 18.3297 21.7667 17.5831 23.5798C17.1665 24.5915 16.695 25.3465 16.221 25.8334C15.7499 26.3173 15.3377 26.4793 15.0001 26.4793C14.6625 26.4793 14.2503 26.3173 13.7793 25.8334C13.3053 25.3465 12.8337 24.5915 12.4171 23.5798C11.6706 21.7667 11.1616 19.2785 11.0656 16.4689H18.9346ZM18.5999 25.8756C18.8855 25.4022 19.1437 24.8783 19.3747 24.3175C20.2329 22.2333 20.7767 19.4849 20.8732 16.4689H25.9371C25.5545 20.8459 22.6035 24.4867 18.5999 25.8756ZM11.4003 25.8756C7.39675 24.4867 4.4458 20.8459 4.06315 16.4689H9.12708C9.22353 19.4849 9.76737 22.2333 10.6256 24.3175C10.8565 24.8783 11.1148 25.4022 11.4003 25.8756Z" fill="#6E7072"/>
</svg>
