<svg width="38" height="38" viewBox="0 0 38 38" fill="none" xmlns="http://www.w3.org/2000/svg">
<path d="M0 9.01796C0 4.03748 4.03748 0 9.01796 0H28.1811C33.1616 0 37.1991 4.03748 37.1991 9.01796V28.1811C37.1991 33.1616 33.1616 37.1991 28.1811 37.1991H9.01796C4.03748 37.1991 0 33.1616 0 28.1811V9.01796Z" fill="#79BE70"/>
<path fill-rule="evenodd" clip-rule="evenodd" d="M13.8245 11.0667C12.5212 11.0667 11.3898 11.2819 10.4303 11.7123C9.45647 12.1428 8.71176 12.7597 8.1962 13.5632C7.68063 14.3667 7.42285 15.3209 7.42285 16.4257C7.42285 17.5162 7.68063 18.4703 8.1962 19.2882C8.71176 20.0917 9.45647 20.7087 10.4303 21.1391C11.3898 21.5695 12.5212 21.7848 13.8245 21.7848H17.1875V26.1323H20.0112V21.7848H23.3743C24.6775 21.7848 25.8089 21.5695 26.7684 21.1391C27.7423 20.7087 28.487 20.0917 29.0026 19.2882C29.5181 18.4703 29.7759 17.5162 29.7759 16.4257C29.7759 15.3209 29.5181 14.3667 29.0026 13.5632C28.487 12.7597 27.7423 12.1428 26.7684 11.7123C25.8089 11.2819 24.6775 11.0667 23.3743 11.0667H13.8245ZM13.9533 13.4341C12.736 13.4341 11.8123 13.6924 11.1822 14.2089C10.552 14.7254 10.237 15.4644 10.237 16.4257C10.237 17.387 10.552 18.126 11.1822 18.6425C11.8123 19.159 12.736 19.4173 13.9533 19.4173H23.2454C24.4627 19.4173 25.3864 19.159 26.0166 18.6425C26.6467 18.126 26.9618 17.387 26.9618 16.4257C26.9618 15.4644 26.6467 14.7254 26.0166 14.2089C25.3864 13.6924 24.4627 13.4341 23.2454 13.4341H13.9533Z" fill="white"/>
</svg>
