<svg width="34" height="33" fill="none" xmlns="http://www.w3.org/2000/svg"><path fill-rule="evenodd" clip-rule="evenodd" d="M25.62 15.513c0-.013 0-.025-.002-.038a.758.758 0 0 0-.557-.68.823.823 0 0 0-.227-.031h-8.909c-.434 0-.786.335-.786.75 0 .345.245.637.58.723a.824.824 0 0 0 .206.026h8.909a.823.823 0 0 0 .227-.031.756.756 0 0 0 .558-.719Zm-.008 3.001a.755.755 0 0 0-.551-.716.82.82 0 0 0-.235-.034h-8.909c-.434 0-.786.336-.786.75s.352.75.786.75h8.909a.82.82 0 0 0 .235-.034.755.755 0 0 0 .55-.716Zm.008-6a.756.756 0 0 0-.56-.718.819.819 0 0 0-.226-.032H15.92c-.434 0-.786.336-.786.75 0 .233.112.442.287.58a.798.798 0 0 0 .5.17h8.913a.819.819 0 0 0 .227-.032.756.756 0 0 0 .558-.718Z" fill="#79BE70"/><path fill-rule="evenodd" clip-rule="evenodd" d="M2.83 9.66c0-1.109 1.342-1.692 2.141-.893l2.248 2.248 1.597 1.597 1.572 1.572 1.598 1.598 1.572 1.572 1.521 1.521.543.543h14.121c.694 0 1.257.563 1.257 1.257v11.017c0 .694-.563 1.257-1.257 1.257H15.362a.628.628 0 0 1-.463-.203L3.161 19.986a1.257 1.257 0 0 1-.332-.85V9.66Zm11.903 10.647-1.175-1.175-1.572-1.572-1.598-1.598-1.572-1.572-1.597-1.598-1.572-1.572-1.56-1.56v9.476l1.705 1.854 1.216 1.322 7.725 8.397V20.307Zm1.257 11.385h13.753V20.675H15.99v11.016Z" fill="#79BE70"/><path d="M13.558 8.77h-1.042a.767.767 0 0 0-.53.54v.353a.75.75 0 0 0 .3.43h1.272V8.77Z" fill="#79BE70"/><path d="M12.75 10.237a.808.808 0 0 1-.463-.145h-.3v1.502h1.571v-1.357h-.807Zm-.457 2.857h1.265v-1.357h-.803a.779.779 0 0 0-.769.591v.316a.75.75 0 0 0 .307.45Zm13.58-5.234c.434 0 .786.352.786.786V16.3l1.572 1.247v-8.9a2.358 2.358 0 0 0-2.358-2.359h-.813V7.86h.813Z" fill="#79BE70"/><path fill-rule="evenodd" clip-rule="evenodd" d="M19.544 0H7.995a2.358 2.358 0 0 0-2.348 2.358v5.156h-2.19a.628.628 0 0 0-.628.628v10.994c0 .315.119.619.332.85L14.9 32.747c.12.13.287.203.463.203h14.381c.694 0 1.257-.563 1.257-1.257V20.047a.629.629 0 0 0-.238-.493l-2.531-2.007L26.66 16.3v3.118H15.622l-.543-.543-1.52-1.52v-4.261h-1.266a.75.75 0 0 1-.307-.45v-.316a.779.779 0 0 1 .769-.591h.803v-.143h-1.572v.735a.716.716 0 0 0 0 .315v2.65a.717.717 0 0 0 0 .387v.101l-1.598-1.598V5.503c0-.435.352-.787.786-.787h11.529c.434 0 .785.352.785.786v.786h-9.143a2.352 2.352 0 0 0-2.068 1.226 2.346 2.346 0 0 0-.29 1.132v.665a.719.719 0 0 0 0 .352v.43h.3c.13.09.291.144.465.144h.807v-.145h-1.271a.75.75 0 0 1-.3-.429v-.352a.767.767 0 0 1 .53-.54h1.041v-.124l.002-.054a.786.786 0 0 1 .784-.733h10.716V5.502a2.358 2.358 0 0 0-2.358-2.358h-.812v-.786A2.358 2.358 0 0 0 19.544 0Zm5.282 19.264h-8.909c-.434 0-.786-.336-.786-.75s.352-.75.786-.75h8.909a.82.82 0 0 1 .235.034c.319.096.55.38.55.716 0 .336-.231.62-.55.716a.82.82 0 0 1-.235.034Zm.793-3.75a.756.756 0 0 1-.558.718.823.823 0 0 1-.227.031h-8.909a.824.824 0 0 1-.207-.026.757.757 0 0 1-.58-.724c0-.414.353-.75.787-.75h4.394v-.026h1.336c.071 0 .14.01.206.027h2.972c.08 0 .156.01.228.031a.758.758 0 0 1 .558.718Zm-5.3-2.25H15.92a.824.824 0 0 1-.498-.17.736.736 0 0 1-.288-.58c0-.414.352-.75.786-.75h2.997l-.035-.027-.12-.096a.797.797 0 0 1 .185.095h2.717c.073 0 .144.01.211.028h2.959c.078 0 .155.011.227.032a.755.755 0 0 1 .558.718.756.756 0 0 1-.558.718.819.819 0 0 1-.227.032h-4.515Zm-4.329 10.84v-3.429h2.322a2.344 2.344 0 0 0-.052.312l.312-.312h11.171v11.017H15.99v-7.587Zm-4.004-6.544 1.572 1.572 1.175 1.175v10.402l-7.725-8.397-1.216-1.322-1.706-1.854V9.66l1.561 1.56 1.572 1.572 1.597 1.598 1.572 1.572 1.598 1.598ZM8.816 6.515V9.19a.72.72 0 0 0 0 .307v2.658a.719.719 0 0 0 0 .379v.079L7.22 11.015V2.358c0-.434.352-.786.786-.786h11.528c.434 0 .786.352.786.786v.786h-9.145a2.358 2.358 0 0 0-2.358 2.358v.669a.719.719 0 0 0 0 .344Z" fill="#79BE70"/></svg>