<svg width="34" height="33" viewBox="0 0 34 33" fill="none" xmlns="http://www.w3.org/2000/svg">
<path fill-rule="evenodd" clip-rule="evenodd" d="M25.6195 15.5134C25.6195 15.5004 25.6192 15.4876 25.6185 15.4748C25.6014 15.1529 25.3716 14.8846 25.0605 14.7952C24.9887 14.7746 24.9124 14.7635 24.8335 14.7635H24.7216H23.4885H22.6988H21.8914H21.8611H20.3194H15.9246C15.4905 14.7635 15.1386 15.0992 15.1386 15.5134C15.1386 15.8594 15.3842 16.1507 15.7182 16.2372C15.784 16.2542 15.8532 16.2633 15.9246 16.2633H15.9319H21.8914H23.4885H24.5899H24.8335C24.9124 16.2633 24.9887 16.2522 25.0605 16.2316C25.384 16.1386 25.6195 15.8522 25.6195 15.5134Z" fill="#79BE70"/>
<path fill-rule="evenodd" clip-rule="evenodd" d="M25.6117 18.5142C25.6117 18.1781 25.3799 17.8936 25.0605 17.7983C24.9864 17.7762 24.9075 17.7643 24.8257 17.7643H23.4885H21.4604H19.2599H16.7166H15.9167C15.4826 17.7643 15.1307 18.1 15.1307 18.5142C15.1307 18.9284 15.4826 19.2641 15.9167 19.2641H16.6513H17.76H19.2925H19.9832H24.8257C24.9075 19.2641 24.9864 19.2522 25.0605 19.2301C25.3799 19.1348 25.6117 18.8503 25.6117 18.5142Z" fill="#79BE70"/>
<path fill-rule="evenodd" clip-rule="evenodd" d="M25.6195 12.5138C25.6195 12.175 25.384 11.8886 25.0605 11.7957C24.9887 11.775 24.9124 11.7639 24.8335 11.7639H23.4885H21.8914H21.8751H18.9168H15.9202C15.4861 11.7639 15.1342 12.0997 15.1342 12.5138C15.1342 12.7474 15.2461 12.956 15.4215 13.0936C15.5048 13.1588 15.6023 13.2081 15.709 13.2364C15.7762 13.2542 15.847 13.2638 15.9202 13.2638H20.3194H20.8079H21.8914H22.8307H23.4885H24.8335C24.9124 13.2638 24.9887 13.2527 25.0605 13.232C25.384 13.1391 25.6195 12.8527 25.6195 12.5138Z" fill="#79BE70"/>
<path fill-rule="evenodd" clip-rule="evenodd" d="M2.82935 9.65987C2.82935 8.5511 4.17182 7.96778 4.97146 8.76742L7.21914 11.0149L8.81622 12.612L10.3883 14.184L11.9864 15.7822L13.5584 17.3542L15.0793 18.8751L15.6223 19.4181H16.6513H17.6061H19.0883H19.8292H25.0605H26.6586L29.743 19.4182C30.4372 19.4182 31 19.981 31 20.6752V31.6918C31 32.386 30.4372 32.9488 29.743 32.9488H15.362C15.1862 32.9488 15.0184 32.8752 14.8994 32.7458L3.16127 19.9869C2.94782 19.7549 2.82935 19.4512 2.82935 19.1359V9.65987ZM14.7335 20.3069L13.5584 19.1318L11.9864 17.5598L10.3883 15.9616L8.81622 14.3896L7.21915 12.7925L5.64712 11.2205L4.0863 9.6597V19.1359L5.79192 20.9898L7.00828 22.312L14.7335 30.7089V28.8207V27.2487V25.6766V24.1045V22.5324V20.9604V20.3069ZM15.9904 31.6918H29.743V20.675H28.2307H26.6586H24.7863H22.6623H20.0424H18.5723H18.3123H15.9904V22.5286V24.1045V25.6766V27.2487V28.8207V31.6918Z" fill="#79BE70"/>
<path d="M13.5584 8.7709H12.5161C12.2542 8.84887 12.0512 9.054 11.9864 9.31051V9.66328C12.0306 9.8383 12.1392 9.98939 12.2868 10.0925H13.5584V8.7709Z" fill="#79BE70"/>
<path d="M12.7505 10.2368C12.5771 10.2368 12.4168 10.1832 12.2868 10.0925H11.9864L11.9864 11.5937H13.5584L13.5584 10.2368H12.7505Z" fill="#79BE70"/>
<path d="M12.2934 13.0936H13.5584L13.5584 11.7365H12.7549C12.3776 11.7365 12.0624 11.9902 11.9864 12.3285V12.6444C12.0277 12.8281 12.1395 12.9868 12.2934 13.0936Z" fill="#79BE70"/>
<path d="M25.8726 7.86029C26.3067 7.86029 26.6586 8.21221 26.6586 8.64631V16.2997L28.2307 17.5465V8.64631C28.2307 7.344 27.1749 6.28827 25.8726 6.28827L25.0605 6.28827V7.8603L25.8726 7.86029Z" fill="#79BE70"/>
<path fill-rule="evenodd" clip-rule="evenodd" d="M19.5444 2.53099e-05L19.5334 0L8.00516 3.99788e-06L7.99502 2.53099e-05C6.69737 0.00548479 5.64711 1.05912 5.64711 2.35805L5.64711 7.51394H3.45782C3.11073 7.51394 2.82935 7.79532 2.82935 8.14242V9.65987V19.1359C2.82935 19.4512 2.94782 19.7549 3.16127 19.9869L14.8994 32.7458C15.0184 32.8752 15.1862 32.9488 15.362 32.9488H29.743C30.4372 32.9488 31 32.386 31 31.6918V20.6752V20.0466C31 19.8547 30.9124 19.6734 30.7621 19.5541L28.2307 17.5465L26.6586 16.2997V17.904V19.4181H25.0605H19.8292H19.0883H17.6061H16.6513H15.6223L15.0793 18.8751L13.5584 17.3542V16.2372L13.5584 14.7373V13.2364V13.0936H12.2934C12.1395 12.9868 12.0277 12.8281 11.9864 12.6444V12.3285C12.0624 11.9902 12.3776 11.7365 12.7549 11.7365H13.5584V11.5937H11.9864V12.3285C11.9749 12.3794 11.9689 12.4323 11.9689 12.4864C11.9689 12.5406 11.9749 12.5935 11.9864 12.6444V13.0936L11.9864 15.2931C11.969 15.3551 11.9598 15.4201 11.9598 15.4873C11.9598 15.5544 11.969 15.6195 11.9864 15.6814V15.7822L10.3883 14.184V13.0936L10.3882 11.5937V10.0925L10.3882 8.7709V8.59264V7.51394V7.09294L10.3882 5.59309V5.50218C10.3882 5.06808 10.7402 4.71617 11.1743 4.71617L20.3194 4.71616L21.8914 4.71616L22.7025 4.71616C23.1366 4.71616 23.4885 5.06807 23.4885 5.50218V6.28827L21.8914 6.28827L20.3194 6.28827L19.2787 6.28827L14.3444 6.28827C13.6371 6.28827 13.0025 6.59971 12.5703 7.09294C12.4575 7.22166 12.3585 7.36276 12.2756 7.51394C12.0993 7.83534 11.9957 8.20229 11.987 8.59264C11.9866 8.61049 11.9864 8.62838 11.9864 8.64631V8.7709V9.31051C11.9721 9.36708 11.9645 9.42614 11.9645 9.4869C11.9645 9.54765 11.9721 9.60671 11.9864 9.66328V10.0925H12.2868C12.4168 10.1832 12.5771 10.2368 12.7505 10.2368H13.5584V10.0925H12.2868C12.1392 9.98939 12.0306 9.8383 11.9864 9.66328V9.31051C12.0512 9.054 12.2542 8.84887 12.5161 8.7709H13.5584V8.73697V8.64631C13.5584 8.62827 13.559 8.61038 13.5602 8.59264C13.5878 8.18357 13.9284 7.8603 14.3444 7.8603L16.0176 7.8603L20.3194 7.8603L21.8914 7.8603L23.4885 7.8603L25.0605 7.8603V6.28827V5.50218C25.0605 4.19987 24.0048 3.14413 22.7025 3.14413L21.8914 3.14413V2.35804C21.8914 1.05942 20.8416 0.00597254 19.5444 2.53099e-05ZM24.8257 19.2641H19.9832H19.2925H17.76H16.6513H15.9167C15.4826 19.2641 15.1307 18.9284 15.1307 18.5142C15.1307 18.1 15.4826 17.7643 15.9167 17.7643H16.7166H19.2599H21.4604H23.4885H24.8257C24.9075 17.7643 24.9864 17.7762 25.0605 17.7983C25.3799 17.8936 25.6117 18.1781 25.6117 18.5142C25.6117 18.8503 25.3799 19.1348 25.0605 19.2301C24.9864 19.2522 24.9075 19.2641 24.8257 19.2641ZM25.6195 15.5134C25.6195 15.8522 25.384 16.1386 25.0605 16.2316C24.9887 16.2522 24.9124 16.2633 24.8335 16.2633H24.5899H23.4885H21.8914H15.9319H15.9246C15.8532 16.2633 15.784 16.2542 15.7182 16.2372C15.3842 16.1507 15.1386 15.8594 15.1386 15.5134C15.1386 15.0992 15.4905 14.7635 15.9246 14.7635H20.3194V14.7373H21.6548C21.7262 14.7373 21.7954 14.7464 21.8611 14.7635H21.8914H22.6988H23.4885H24.7216H24.8335C24.9124 14.7635 24.9887 14.7746 25.0605 14.7952C25.3716 14.8846 25.6014 15.1529 25.6185 15.4748C25.6192 15.4876 25.6195 15.5004 25.6195 15.5134ZM20.3194 13.2638H15.9202C15.847 13.2638 15.7762 13.2542 15.709 13.2364C15.6023 13.2081 15.5048 13.1588 15.4215 13.0936C15.2461 12.956 15.1342 12.7474 15.1342 12.5138C15.1342 12.0997 15.4861 11.7639 15.9202 11.7639H18.9168L18.8822 11.7365L18.7623 11.6414C18.8288 11.6652 18.8909 11.6974 18.9474 11.7365H20.3194H20.9051H21.6639C21.737 11.7365 21.8079 11.7461 21.8751 11.7639H21.8914H23.4885H24.8335C24.9124 11.7639 24.9887 11.775 25.0605 11.7957C25.384 11.8886 25.6195 12.175 25.6195 12.5138C25.6195 12.8527 25.384 13.1391 25.0605 13.232C24.9887 13.2527 24.9124 13.2638 24.8335 13.2638H23.4885H22.8307H21.8914H20.8079H20.3194ZM15.9904 24.1045V22.5286V20.675H18.3123C18.2881 20.7767 18.2705 20.881 18.26 20.9873L18.5723 20.675H20.0424H22.6623H24.7863H26.6586H28.2307H29.743V31.6918H15.9904V28.8207V27.2487V25.6766V24.1045ZM11.9864 17.5598L13.5584 19.1318L14.7335 20.3069V20.9604V22.5324V24.1045V25.6766V27.2487V28.8207V30.7089L7.00828 22.312L5.79192 20.9898L4.0863 19.1359V9.6597L5.64712 11.2205L7.21915 12.7925L8.81622 14.3896L10.3883 15.9616L11.9864 17.5598ZM8.81622 6.5152V7.51394V8.7709V9.18937C8.80546 9.23883 8.7998 9.29007 8.7998 9.34257C8.7998 9.39507 8.80546 9.44631 8.81622 9.49577L8.81622 12.1542C8.79972 12.2147 8.79093 12.2782 8.79093 12.3436C8.79093 12.4091 8.79972 12.4725 8.81622 12.533V12.612L7.21914 11.0149L7.21914 8.7709L7.21914 7.51394L7.21914 2.35805C7.21914 1.92394 7.57105 1.57203 8.00516 1.57203L19.5334 1.57203C19.9675 1.57203 20.3194 1.92394 20.3194 2.35804V3.14413L11.1743 3.14414C9.87195 3.14414 8.81622 4.19987 8.81622 5.50218V6.17084C8.8026 6.22612 8.7954 6.28377 8.7954 6.34302C8.7954 6.40227 8.8026 6.45991 8.81622 6.5152Z" fill="#79BE70"/>
</svg>
