<svg width="38" height="38" fill="none" xmlns="http://www.w3.org/2000/svg"><path d="M0 9.018A9.018 9.018 0 0 1 9.018 0h19.163A9.018 9.018 0 0 1 37.2 9.018v19.163a9.018 9.018 0 0 1-9.018 9.018H9.018A9.018 9.018 0 0 1 0 28.181V9.018Z" fill="#79BE70"/><path fill-rule="evenodd" clip-rule="evenodd" d="M13.825 11.067c-1.304 0-2.435.215-3.395.645-.974.43-1.718 1.048-2.234 1.851-.515.804-.773 1.758-.773 2.863 0 1.09.258 2.044.773 2.862.516.804 1.26 1.42 2.234 1.851.96.43 2.091.646 3.395.646h3.363v4.347h2.823v-4.347h3.363c1.303 0 2.435-.215 3.394-.646.974-.43 1.719-1.047 2.235-1.85.515-.819.773-1.773.773-2.863 0-1.105-.258-2.06-.773-2.863-.516-.803-1.26-1.42-2.235-1.85-.96-.431-2.09-.646-3.394-.646h-9.55Zm.128 2.367c-1.217 0-2.14.258-2.77.775-.631.516-.946 1.255-.946 2.217 0 .961.315 1.7.945 2.216.63.517 1.554.775 2.771.775h9.292c1.218 0 2.141-.258 2.772-.775.63-.516.945-1.255.945-2.216 0-.962-.315-1.7-.945-2.217-.63-.517-1.554-.775-2.772-.775h-9.292Z" fill="#fff"/></svg>