<svg width="24" height="24" viewBox="0 0 24 24" fill="none" xmlns="http://www.w3.org/2000/svg">
<path fill-rule="evenodd" clip-rule="evenodd" d="M16.6152 15.2005L20.5553 19.1406C20.9458 19.5311 20.9458 20.1643 20.5553 20.5548C20.1648 20.9453 19.5316 20.9453 19.1411 20.5548L15.201 16.6147C13.9392 17.5787 12.3624 18.1514 10.6519 18.1514C6.50972 18.1514 3.15186 14.7935 3.15186 10.6514C3.15186 6.50923 6.50972 3.15137 10.6519 3.15137C14.794 3.15137 18.1519 6.50923 18.1519 10.6514C18.1519 12.3619 17.5792 13.9387 16.6152 15.2005ZM16.1519 10.6514C16.1519 13.6889 13.6894 16.1514 10.6519 16.1514C7.61429 16.1514 5.15186 13.6889 5.15186 10.6514C5.15186 7.6138 7.61429 5.15137 10.6519 5.15137C13.6894 5.15137 16.1519 7.6138 16.1519 10.6514Z" fill="#969C9E"/>
</svg>
