<svg width="187" height="139" fill="none" xmlns="http://www.w3.org/2000/svg"><path fill="#fff" d="M0 0h187v139H0z"/><path d="M45.947 99.503h.005l61.177-.625h.004a.628.628 0 0 0 .623-.63v-.003l-.313-79.605v-.005a.664.664 0 0 0-.196-.457.616.616 0 0 0-.439-.178h-.004l-61.178.626h-.003a.627.627 0 0 0-.623.629v.003l.313 79.606v.004a.659.659 0 0 0 .189.451l.445.184Zm0 0a.622.622 0 0 1-.445-.184l.445.184Z" fill="#fff" stroke="#79BE70" stroke-width="2"/><path d="m97.442 27.629-46.29.581v-2.123l46.29-.587v2.129Z" stroke="#E4F0E4" stroke-width="4" stroke-linecap="round" stroke-linejoin="round"/><path d="M83.808 74.13c2.134-1.813 4.209-3.917 6.144-5.927.858.702 5.792 5.08 6.796 5.637m-2.678-6.375c-2.235-1.466.252-4.013 2.293-2.856 2.567 1.46.246 4.518-2.294 2.856Z" stroke="#E4F0E4" stroke-width="3" stroke-linecap="round" stroke-linejoin="round"/><path d="m100.334 74.125-.193-12.164-16.777.215.213 12.158 16.757-.209ZM82.565 36.887l14.876-.183m-46.288.581 27.99-.353m-6.499 6.748 24.797-.315m-46.288.587 16.93-.215m22.27 6.376 7.089-.089m-46.289.588 32.937-.417m-16.392 6.868 29.745-.373m-46.29.58 11.677-.145m-11.677 6.807 25.821-.323M66.541 70.44l10.673-.177m-26.061.336 11.67-.12" stroke="#C6CBCD" stroke-width="3" stroke-linecap="round" stroke-linejoin="round"/><path d="M64.254 84.937a6.145 6.145 0 1 0-12.289 0 6.145 6.145 0 1 0 12.289 0Z" stroke="#E4F0E4" stroke-width="3" stroke-linecap="round" stroke-linejoin="round"/><path d="M60.934 84.937a2.824 2.824 0 0 0-2.826-2.825 2.824 2.824 0 1 0 0 5.65 2.824 2.824 0 0 0 2.826-2.825Z" stroke="#E4F0E4" stroke-width="3" stroke-linecap="round" stroke-linejoin="round"/><path d="m90.342 82.98 10.467-.177m-10.467 4.272 10.467-.177" stroke="#C6CBCD" stroke-width="3" stroke-linecap="round" stroke-linejoin="round"/><path d="M67.772 88.231a18.036 18.036 0 0 1 4.555-4.777c-.22 1.668-1.816 3.027-1.65 4.695.014.145.054.31.18.392.073.05.166.063.253.07.552 0 1.03-.367 1.55-.557a.504.504 0 0 1 .272-.038c.332.063.299.563.505.828.166.221.499.253.752.152.252-.101.452-.31.625-.518a9.535 9.535 0 0 0 2.234-5.422c.02-.265-.033-.62-.3-.676-.199-.044-.372.126-.505.278-.319.366-.631.765-.744 1.239-.113.473.026 1.042.452 1.282.698.405 1.676-.272 2.347.165.253.164.413.448.679.58.272.14.618.07.884-.094.26-.164.459-.41.645-.657a25.772 25.772 0 0 0 2.653-4.348c-1.137 2.048-2.287 4.14-2.666 6.446-.04.252-.067.543.106.739.24.272.685.164 1.004-.013.313-.183.639-.43.991-.372.16.019.306.1.466.094.219-.006.399-.177.552-.334l1.356-1.403" stroke="#E4F0E4" stroke-width="3" stroke-linecap="round" stroke-linejoin="round"/><path d="M62.567 110.392h.004l61.178-.625h.003a.627.627 0 0 0 .623-.629v-.004l-.312-79.605v-.005a.664.664 0 0 0-.196-.457h-.001a.614.614 0 0 0-.438-.178h-.004l-61.178.626h-.003a.627.627 0 0 0-.623.63v.003l.312 79.605v.004a.659.659 0 0 0 .19.451l.445.184Zm0 0a.62.62 0 0 1-.445-.184l.445.184Z" fill="#fff" stroke="#79BE70" stroke-width="2"/><path d="m114.054 38.522-46.29.582V36.98l46.29-.588v2.13Z" stroke="#E4F0E4" stroke-width="4" stroke-linecap="round" stroke-linejoin="round"/><path d="M100.433 85.02c2.134-1.813 4.209-3.918 6.144-5.927.858.701 5.792 5.08 6.796 5.636m-2.678-6.375c-2.234-1.466.253-4.012 2.294-2.856 2.567 1.46.247 4.518-2.294 2.856Z" stroke="#E4F0E4" stroke-width="3" stroke-linecap="round" stroke-linejoin="round"/><path d="m116.96 85.013-.193-12.163-16.777.215.213 12.157 16.757-.209Zm-17.783-37.24 14.876-.183m-46.288.581 27.989-.354m-6.498 6.75 24.797-.316m-46.288.586 16.93-.214m22.27 6.375 7.089-.088m-46.289.588 32.937-.417M84.31 67.948l29.745-.373m-46.29.582 11.677-.145m-11.677 6.805 25.821-.322m-10.433 6.832 10.673-.177m-26.061.333 11.67-.12" stroke="#C6CBCD" stroke-width="3" stroke-linecap="round" stroke-linejoin="round"/><path d="M80.873 95.826a6.15 6.15 0 0 0-6.145-6.148 6.145 6.145 0 0 0-6.144 6.148 6.145 6.145 0 1 0 12.289 0Z" stroke="#E4F0E4" stroke-width="3" stroke-linecap="round" stroke-linejoin="round"/><path d="M77.552 95.826a2.824 2.824 0 0 0-2.826-2.824 2.824 2.824 0 1 0 0 5.649 2.824 2.824 0 0 0 2.826-2.825Z" stroke="#E4F0E4" stroke-width="3" stroke-linecap="round" stroke-linejoin="round"/><path d="m106.982 93.86 10.467-.177m-10.467 4.272 10.467-.177" stroke="#C6CBCD" stroke-width="3" stroke-linecap="round" stroke-linejoin="round"/><path d="M84.413 99.111a18.037 18.037 0 0 1 4.555-4.777c-.22 1.668-1.816 3.027-1.65 4.695.014.145.054.31.18.392.073.05.166.063.253.07.552 0 1.03-.367 1.55-.557a.505.505 0 0 1 .272-.038c.332.063.3.563.505.828.167.221.5.253.752.152s.452-.31.625-.518a9.535 9.535 0 0 0 2.234-5.422c.02-.266-.033-.62-.3-.676-.199-.044-.371.126-.504.278-.32.366-.632.764-.745 1.238-.113.474.026 1.043.452 1.283.698.404 1.676-.272 2.347.164.253.165.413.449.679.582.272.139.618.07.884-.095.26-.164.459-.41.645-.657a25.772 25.772 0 0 0 2.653-4.348c-1.137 2.048-2.287 4.14-2.666 6.446-.04.252-.067.543.106.739.24.272.685.164 1.004-.013.313-.183.639-.43.991-.373.16.02.306.102.466.095.22-.006.399-.177.552-.335l1.356-1.402" stroke="#E4F0E4" stroke-width="3" stroke-linecap="round" stroke-linejoin="round"/><path d="M79.191 120.712h.005l61.178-.626h.003a.627.627 0 0 0 .623-.629v-.003l-.313-79.606v-.004a.664.664 0 0 0-.196-.457.615.615 0 0 0-.438-.178h-.005l-61.178.625h-.003a.627.627 0 0 0-.623.63v.003l.313 79.606v.004a.661.661 0 0 0 .19.451l.444.184Zm0 0a.623.623 0 0 1-.445-.184l.445.184Z" fill="#fff" stroke="#79BE70" stroke-width="2"/><path d="m130.678 48.84-46.29.582v-2.123l46.29-.588v2.13Z" stroke="#E4F0E4" stroke-width="4" stroke-linecap="round" stroke-linejoin="round"/><path d="M117.052 95.335c2.135-1.814 4.21-3.918 6.145-5.927.858.7 5.792 5.08 6.796 5.636m-2.678-6.377c-2.234-1.466.253-4.012 2.294-2.856 2.567 1.46.246 4.518-2.294 2.856Z" stroke="#E4F0E4" stroke-width="3" stroke-linecap="round" stroke-linejoin="round"/><path d="m133.579 95.327-.193-12.164-16.778.215.213 12.158 16.758-.209Zm-17.778-37.234 14.876-.184m-46.289.581 27.99-.353m-6.498 6.749 24.798-.316m-46.29.587 16.931-.215m22.267 6.376 7.089-.088m-46.287.587 32.937-.417m-16.392 6.868 29.745-.373m-46.29.582 11.677-.145m-11.677 6.806 25.822-.322m-10.434 6.831 10.673-.177m-26.061.334 11.67-.12" stroke="#C6CBCD" stroke-width="3" stroke-linecap="round" stroke-linejoin="round"/><path d="M97.499 106.145a6.15 6.15 0 0 0-6.145-6.148 6.145 6.145 0 0 0-6.144 6.148 6.145 6.145 0 1 0 12.289 0Z" stroke="#E4F0E4" stroke-width="3" stroke-linecap="round" stroke-linejoin="round"/><path d="M94.18 106.145a2.824 2.824 0 0 0-2.827-2.825 2.824 2.824 0 1 0 0 5.649 2.824 2.824 0 0 0 2.826-2.824Z" stroke="#E4F0E4" stroke-width="3" stroke-linecap="round" stroke-linejoin="round"/><path d="m123.592 104.185 10.467-.176m-10.468 4.27 10.467-.177" stroke="#C6CBCD" stroke-width="3" stroke-linecap="round" stroke-linejoin="round"/><path d="M101.021 109.436a18.034 18.034 0 0 1 4.555-4.777c-.22 1.668-1.816 3.027-1.649 4.695.013.146.053.31.179.392a.496.496 0 0 0 .253.069c.552 0 1.031-.366 1.549-.556a.512.512 0 0 1 .273-.038c.332.064.299.563.505.828.166.221.499.253.752.152.252-.101.452-.31.625-.518a9.537 9.537 0 0 0 2.234-5.422c.02-.265-.033-.619-.299-.676-.2-.044-.373.126-.506.278-.319.367-.631.765-.744 1.239-.113.473.026 1.042.452 1.282.698.405 1.676-.271 2.347.165.253.164.413.448.679.581.272.139.618.069.884-.095.259-.164.459-.411.645-.657a25.806 25.806 0 0 0 2.653-4.347c-1.137 2.047-2.287 4.138-2.666 6.445-.04.253-.067.543.106.739.24.272.685.164 1.004-.012.313-.184.639-.43.991-.373.16.019.306.101.466.094.219-.006.399-.176.552-.334l1.356-1.403" stroke="#E4F0E4" stroke-width="3" stroke-linecap="round" stroke-linejoin="round"/></svg>