<svg width="187" height="139" fill="none" xmlns="http://www.w3.org/2000/svg"><path fill="#fff" d="M0 0h187v139H0z"/><path d="M98.147 47.112c-4.264 5.285-1.274 14.783 6.687 21.218 7.961 6.43 17.874 7.36 22.138 2.076" stroke="#6E7072" stroke-width="2.176" stroke-linecap="round" stroke-linejoin="round"/><path d="M124.986 44.482c-7.961-6.435-17.869-7.36-22.138-2.076-4.264 5.285-1.268 14.789 6.693 21.218 7.961 6.43 17.868 7.36 22.138 2.076 4.263-5.285 1.267-14.789-6.693-21.218Z" stroke="#6E7072" stroke-width="2.176" stroke-linecap="round" stroke-linejoin="round"/><path d="M113.806 51.26c-.858 1.065-.258 2.99 1.352 4.291 1.61 1.296 3.613 1.487 4.477.415" fill="#fff"/><path d="M113.806 51.26c-.858 1.065-.258 2.99 1.352 4.291 1.61 1.296 3.613 1.487 4.477.415" stroke="#6E7072" stroke-width="2.176" stroke-linecap="round" stroke-linejoin="round"/><path d="m120.03 55.574 8.348-8.348-8.348 8.348Z" fill="#fff"/><path d="m120.03 55.574 8.348-8.348" stroke="#6E7072" stroke-width="2.176" stroke-linecap="round" stroke-linejoin="round"/><path d="m114.181 50.995 7.967-7.972-7.967 7.972Z" fill="#fff"/><path d="m114.181 50.995 7.967-7.972" stroke="#6E7072" stroke-width="2.176" stroke-linecap="round" stroke-linejoin="round"/><path d="M141.002 39.013c0-6.082-4.932-11.013-11.019-11.013-6.081 0-11.012 4.931-11.012 11.013 0 6.087 4.931 11.018 11.012 11.018 6.087 0 11.019-4.931 11.019-11.018Z" fill="#fff"/><path d="M141.002 39.013c0-6.082-4.932-11.013-11.019-11.013-6.081 0-11.012 4.931-11.012 11.013 0 6.087 4.931 11.018 11.012 11.018 6.087 0 11.019-4.931 11.019-11.018Zm-42.974 8.111 4.836-4.836m23.567 28.809 4.836-4.836" stroke="#6E7072" stroke-width="2.176" stroke-linecap="round" stroke-linejoin="round"/><path d="M104.184 84.056c0-8.857-7.184-16.035-16.041-16.035-8.852 0-16.036 7.178-16.036 16.035s7.184 16.041 16.036 16.041c8.857 0 16.041-7.184 16.041-16.041Z" stroke="#79BE70" stroke-width="2" stroke-linecap="round" stroke-linejoin="round"/><path d="M95.528 84.055a7.376 7.376 0 0 0-7.377-7.377 7.38 7.38 0 0 0-7.383 7.377 7.385 7.385 0 0 0 7.383 7.383 7.38 7.38 0 0 0 7.377-7.383Zm-12.329-10.38c.795-.728 2.98-1.267 4.057-1.36 2.104-.189 3.316 0 5.241.753m3.652 3.102a11.317 11.317 0 0 1 2.777 4.793M97.9 89.456c-.657 1.756-1.91 3.264-3.446 4.34-1.53 1.077-3.34 1.734-5.19 2.032m-3.572-.219c-.723-.072-1.447-.144-2.165-.21m-4.251-3.574c-.188-.221-.381-.442-.569-.663m-2.002-7.344c-.441-.95-.298-2.065-.01-3.076a11.765 11.765 0 0 1 2.368-4.412m31.769 24 6.935 9.79m-2.783-18.674 12.143-.1m-13.432 4.717 14.721 8.304M65.34 72.503l-8.96-8.533m6.906 17.847-11.798 2.828m12.018-7.114L47.294 71.75" stroke="#79BE70" stroke-width="2" stroke-linecap="round" stroke-linejoin="round"/></svg>