<svg width="35" height="35" viewBox="0 0 35 35" fill="none" xmlns="http://www.w3.org/2000/svg">
<path d="M7.51239 16.1795C13.418 13.4981 17.3559 11.7304 19.3263 10.8764C24.9521 8.43787 26.1211 8.01427 26.883 8.00014C27.0506 7.99721 27.4253 8.04049 27.668 8.24573C27.873 8.41903 27.9294 8.65313 27.9563 8.81744C27.9833 8.98175 28.0169 9.35604 27.9902 9.64851C27.6854 12.9866 26.3662 21.0874 25.6951 24.8262C25.4111 26.4082 24.852 26.9387 24.3107 26.9906C23.1343 27.1034 22.2409 26.1804 21.1015 25.402C19.3186 24.1841 18.3113 23.4259 16.5807 22.2374C14.5806 20.8638 15.8772 20.1089 17.017 18.8752C17.3153 18.5523 22.4986 13.6391 22.5989 13.1934C22.6115 13.1377 22.6231 12.9299 22.5046 12.8202C22.3862 12.7105 22.2114 12.748 22.0852 12.7779C21.9064 12.8201 19.0581 14.782 13.5403 18.6635C12.7319 19.2421 11.9996 19.524 11.3435 19.5092C10.6202 19.4929 9.2288 19.083 8.19447 18.7326C6.92583 18.3029 5.91753 18.0757 6.00533 17.3458C6.05106 16.9656 6.55341 16.5769 7.51239 16.1795Z" fill="#79BE70"/>
</svg>
