<svg width="187" height="139" fill="none" xmlns="http://www.w3.org/2000/svg"><g opacity=".5"><path fill="#fff" d="M0 0h187v139H0z"/><path d="M11 51a4 4 0 0 1 4-4h33a4 4 0 0 1 4 4v41a4 4 0 0 1-4 4H15a4 4 0 0 1-4-4V51Z" fill="#fff"/><path d="M11 52.378V92a4 4 0 0 0 4 4h33a4 4 0 0 0 4-4V52.378m-41 0V51a4 4 0 0 1 4-4h33a4 4 0 0 1 4 4v1.378m-41 0h41m-36.544 4.78h30.9m-30.9 4.482h16.638m-16.638 3.884h19.61m-19.61 4.482h12.182M15.456 85.543h19.015m-19.014 4.481h10.101" stroke="#C6CBCD" stroke-width="2"/><path d="M66 51a4 4 0 0 1 4-4h33a4 4 0 0 1 4 4v41a4 4 0 0 1-4 4H70a4 4 0 0 1-4-4V51Z" fill="#fff"/><path d="M66 52.378V92a4 4 0 0 0 4 4h33a4 4 0 0 0 4-4V52.378m-41 0V51a4 4 0 0 1 4-4h33a4 4 0 0 1 4 4v1.378m-41 0h41m-36.543 4.78h30.898M70.457 61.64h16.637m-16.637 3.884h19.608m-19.608 4.482h12.18m-12.18 15.537H89.47m-19.014 4.481h10.101" stroke="#C6CBCD" stroke-width="2"/><path d="M121 36a4 4 0 0 1 4-4h46a4 4 0 0 1 4 4v56a4 4 0 0 1-4 4h-46a4 4 0 0 1-4-4V36Z" fill="#fff"/><path d="M121 39.024V92a4 4 0 0 0 4 4h46a4 4 0 0 0 4-4V39.024m-54 0V36a4 4 0 0 1 4-4h46a4 4 0 0 1 4 4v3.024m-54 0h54m-48.13 6.244h40.695m-40.695 5.854h21.913m-21.913 5.073h25.826M126.87 62.05h16.043M126.87 82.34h25.043m-25.043 5.854h13.304" stroke="#79BE70" stroke-width="2"/><path d="M120.592 62.64c.057.445.069.912.182 1.333 3.713 12.869 7.448 25.737 11.161 38.605.193.649.478 1.23 1.173 1.458.797.262 1.56-.091 2.015-.911l4.817-8.746c.091-.16.182-.33.296-.535.148.182.285.33.399.478 3.12 3.997 6.241 7.983 9.361 11.98.672.866 1.15.922 2.027.251 1.799-1.401 3.598-2.802 5.398-4.214.831-.649.888-1.15.227-1.993-3.222-4.122-6.445-8.245-9.668-12.379a7.23 7.23 0 0 1-.398-.535c.535-.193 1.036-.387 1.537-.57 2.756-1.001 5.523-2.015 8.29-3.017.479-.17.877-.433 1.105-.888a1.608 1.608 0 0 0-.604-2.073 7.898 7.898 0 0 0-.535-.296c-11.285-6.218-22.582-12.435-33.856-18.676-.911-.501-1.697-.638-2.54.023-.125.239-.261.478-.387.706Z" fill="#fff"/><path d="M120.592 62.64c.057.445.069.912.182 1.333 3.713 12.869 7.448 25.737 11.161 38.605.193.649.478 1.23 1.173 1.458.797.262 1.56-.091 2.015-.911l4.817-8.746c.091-.16.182-.33.296-.535.148.182.285.33.399.478 3.12 3.997 6.241 7.983 9.361 11.98.672.866 1.15.922 2.027.251 1.799-1.401 3.598-2.802 5.398-4.214.831-.649.888-1.15.227-1.993-3.222-4.122-6.445-8.245-9.668-12.379a7.23 7.23 0 0 1-.398-.535c.535-.193 1.036-.387 1.537-.57 2.756-1.001 5.523-2.015 8.29-3.017.479-.17.877-.433 1.105-.888a1.608 1.608 0 0 0-.604-2.073 7.898 7.898 0 0 0-.535-.296c-11.285-6.218-22.582-12.435-33.856-18.676-.911-.501-1.697-.638-2.54.023-.125.239-.261.478-.387.706Z" stroke="#6E7072" stroke-width="2" stroke-linecap="round" stroke-linejoin="round"/></g></svg>