<svg width="187" height="139" fill="none" xmlns="http://www.w3.org/2000/svg"><path fill="#fff" d="M0 0h187v139H0z"/><path d="m68.145 22.64 56.84-.64c.46 0 .884.178 1.202.533.318.356.495.818.495 1.316l.318 89.644c0 .995-.742 1.849-1.697 1.849l-63.768.711c-.46 0-.884-.178-1.202-.534a1.955 1.955 0 0 1-.495-1.315l-.318-79.545" fill="#fff"/><path d="m68.145 22.64 56.84-.64c.46 0 .884.178 1.202.533.318.356.495.818.495 1.316l.318 89.644c0 .995-.742 1.849-1.697 1.849l-63.768.711c-.46 0-.884-.178-1.202-.534a1.955 1.955 0 0 1-.495-1.315l-.318-79.545" stroke="#79BE70" stroke-width="2" stroke-miterlimit="10" stroke-linecap="round" stroke-linejoin="round"/><path d="m59.52 34.341 8.625-11.699.177 11.7H59.52Z" fill="#fff" stroke="#79BE70" stroke-width="2" stroke-miterlimit="10" stroke-linecap="round" stroke-linejoin="round"/><path d="M115.231 32.802c0 .654-.528 1.186-1.183 1.191l-40.512.302a1.208 1.208 0 1 1-.017-2.416l40.513-.269a1.191 1.191 0 0 1 1.199 1.192Z" fill="#E4F0E4" stroke="#E4F0E4" stroke-width="2" stroke-miterlimit="10" stroke-linecap="round" stroke-linejoin="round"/><path d="M113.179 41.164a3.011 3.011 0 0 1 3.005 3.023v.498a3.011 3.011 0 0 1-3.005 3.022h-39.52a3.011 3.011 0 0 1-3.004-3.022v-.498a3.011 3.011 0 0 1 3.005-3.023h39.519Zm-.383 19.954a3.01 3.01 0 0 1 3.004 3.022v13.513a3.01 3.01 0 0 1-3.004 3.022H73.241a3.011 3.011 0 0 1-3.005-3.022V64.105a3.011 3.011 0 0 1 3.005-3.023h39.555v.036ZM96.813 50.84a3.011 3.011 0 0 1 3.005 3.022v.497a3.011 3.011 0 0 1-3.005 3.023H73.66a3.011 3.011 0 0 1-3.005-3.023v-.497a3.011 3.011 0 0 1 3.005-3.023h23.153Z" fill="#EBEEF1"/><path d="M108.125 98.134c3.671 0 6.646-3.025 6.646-6.756 0-3.731-2.975-6.756-6.646-6.756-3.67 0-6.645 3.025-6.645 6.756 0 3.731 2.975 6.756 6.645 6.756Z" stroke="#C6CBCD" stroke-width="2" stroke-linecap="round" stroke-linejoin="round" stroke-dasharray="7.8 7.8"/><path d="M108.135 94.47c1.679 0 3.04-1.384 3.04-3.093s-1.361-3.094-3.04-3.094-3.04 1.385-3.04 3.094c0 1.709 1.361 3.094 3.04 3.094Z" stroke="#C6CBCD" stroke-width="2" stroke-linecap="round" stroke-linejoin="round" stroke-dasharray="8.38 8.38"/><path d="M71.287 95.252c.247-.391.494-.782.777-1.173" stroke="#C6CBCD" stroke-width="2" stroke-linecap="round" stroke-linejoin="round"/><path d="M73.131 92.618c.601-.71 1.202-1.386 1.874-2.026" stroke="#C6CBCD" stroke-width="2" stroke-linecap="round" stroke-linejoin="round" stroke-dasharray="4.79 4.79"/><path d="M75.676 89.954c.353-.32.707-.605 1.096-.89a5.85 5.85 0 0 1-.354 1.352" stroke="#C6CBCD" stroke-width="2" stroke-linecap="round" stroke-linejoin="round"/><path d="M75.211 92.94c-.318.71-.495 1.457-.424 2.24.035.177.07.39.212.497.106.071.212.071.318.071.672 0 1.237-.462 1.874-.71.106-.037.212-.072.318-.037.389.072.353.747.6 1.067.213.285.602.32.92.178.318-.142.53-.391.742-.675 1.555-1.956 2.51-4.48 2.686-7.041.036-.356-.035-.818-.353-.89-.247-.035-.46.179-.6.356-.39.463-.779.996-.885 1.6-.141.605.036 1.352.53 1.672.849.533 2.016-.356 2.829.213.318.214.494.57.813.747.318.178.742.107 1.06-.107.318-.213.566-.533.778-.853.707-.996 1.343-2.063 1.944-3.13" stroke="#C6CBCD" stroke-width="2" stroke-linecap="round" stroke-linejoin="round" stroke-dasharray="7.24 7.24"/><path d="M89.21 86.894c.212-.426.424-.853.601-1.28-.212.427-.424.818-.636 1.245" stroke="#C6CBCD" stroke-width="2" stroke-linecap="round" stroke-linejoin="round"/><path d="M88.008 89.35c-.636 1.493-1.166 3.022-1.414 4.658-.035.32-.07.711.142.96.282.355.813.213 1.201 0 .39-.214.778-.57 1.202-.498.177.036.354.142.566.142.177 0 .318-.106.424-.213" stroke="#C6CBCD" stroke-width="2" stroke-linecap="round" stroke-linejoin="round" stroke-dasharray="7.11 7.11"/><path d="M91.09 93.362c.317-.355.636-.71.954-1.03" stroke="#C6CBCD" stroke-width="2" stroke-linecap="round" stroke-linejoin="round"/><path d="M115.376 103.324c.813 0 1.45.284 1.45.64v1.778c0 .355-.672.64-1.45.64H97.702c-.813 0-1.45-.285-1.45-.64v-1.778c0-.356.672-.64 1.45-.64h17.674Z" stroke="#C6CBCD" stroke-width="2.923" stroke-linecap="round" stroke-linejoin="round" stroke-dasharray="7.45 7.45"/><path d="M72.006 63.984 53.993 45.792l-3.544-3.578-3.543-3.579L41 44.599l3.543 3.579L66.1 69.948l9.45 3.877-3.544-9.841Z" fill="#fff"/><path d="M72.006 63.984 53.993 45.792l-3.544-3.578m21.557 21.77 3.544 9.84-9.45-3.876m5.906-5.964L66.1 69.948m0 0-21.557-21.77m5.906-5.964-3.543-3.579L41 44.599l3.543 3.579m5.906-5.964-5.906 5.964" stroke="#6E7072" stroke-width="2" stroke-linejoin="round"/></svg>