<svg width="187" height="139" fill="none" xmlns="http://www.w3.org/2000/svg"><g opacity=".5"><path fill="#fff" d="M0 0h187v139H0z"/><path d="M156.983 20.444a3 3 0 0 0-3.088 2.998v92.108a3 3 0 0 0 3.313 2.983l6.301-.661a5 5 0 0 0 4.478-4.991l-.318-87.286a5 5 0 0 0-4.853-4.98l-5.833-.171Z" fill="#fff" stroke="#C6CBCD" stroke-width="2"/><rect x="19" y="28.684" width="110.607" height="84.32" rx="9" stroke="#C6CBCD" stroke-width="2"/><rect x="25.227" y="34.909" width="98.155" height="71.868" rx="3" stroke="#C6CBCD" stroke-width="2"/><path d="M35.912 40.444h-1v55.265h78.786V40.443H35.912Z" stroke="#C6CBCD" stroke-width="2"/><rect x="117.924" y="38.369" width="5.459" height="19.294" rx="2.729" stroke="#C6CBCD" stroke-width="2"/><rect x="117.924" y="82.642" width="5.459" height="19.294" rx="2.729" stroke="#C6CBCD" stroke-width="2"/><path d="M125.745 33.597a5 5 0 0 0-2.981 4.575v64.508a5 5 0 0 0 3.214 4.67l27.28 10.431c3.273 1.251 6.786-1.166 6.786-4.671V26.137c0-3.613-3.714-6.033-7.019-4.575l-27.28 12.035Z" fill="#fff" stroke="#C6CBCD" stroke-width="2"/><path d="M34.527 112.388h-1v2.534a5 5 0 0 0 5 5h8.603a5 5 0 0 0 5-5v-2.534H34.527Zm62.95 0h-1v2.534a5 5 0 0 0 5 5h8.602a5 5 0 0 0 5-5v-2.534H97.477Z" stroke="#C6CBCD" stroke-width="2"/><path d="m28.648 47.324 8.302 54.649 8.3-5.188-7.609-47.04-8.993-2.421Z" fill="#fff" stroke="#79BE70" stroke-width="2" stroke-linejoin="round"/><path d="m33.143 47.324 8.3 54.649 8.302-5.189-7.61-47.04-8.992-2.42Z" fill="#fff" stroke="#79BE70" stroke-width="2" stroke-linejoin="round"/><path d="m37.985 47.324 8.301 54.649 8.302-5.188-7.61-47.04-8.993-2.421Zm62.952 54.65H50.439l8.647-7.264h38.738l3.113 7.264Z" fill="#fff" stroke="#79BE70" stroke-width="2" stroke-linejoin="round"/><path d="M100.937 99.207H50.439l8.647-7.264h38.738l3.113 7.264Z" fill="#fff" stroke="#79BE70" stroke-width="2" stroke-linejoin="round"/><path d="M100.937 96.44H50.439l8.647-7.263h38.738l3.113 7.263Z" fill="#fff" stroke="#79BE70" stroke-width="2" stroke-linejoin="round"/><path d="M100.937 93.673H50.439l8.647-7.264h38.738l3.113 7.264Z" fill="#fff" stroke="#79BE70" stroke-width="2" stroke-linejoin="round"/><path d="M100.937 90.906H50.439l8.647-7.264h38.738l3.113 7.264Z" fill="#fff" stroke="#79BE70" stroke-width="2" stroke-linejoin="round"/></g></svg>