<svg width="24" height="24" viewBox="0 0 24 24" fill="none" xmlns="http://www.w3.org/2000/svg">
<path d="M8.5 10.5L14 7.5M8.5 13.5L14.5 16.5M9 12C9 13.6569 7.65685 15 6 15C4.34315 15 3 13.6569 3 12C3 10.3431 4.34315 9 6 9C7.65685 9 9 10.3431 9 12ZM20 6C20 7.65685 18.6569 9 17 9C15.3431 9 14 7.65685 14 6C14 4.34315 15.3431 3 17 3C18.6569 3 20 4.34315 20 6ZM20 18C20 19.6569 18.6569 21 17 21C15.3431 21 14 19.6569 14 18C14 16.3431 15.3431 15 17 15C18.6569 15 20 16.3431 20 18Z" stroke="black" stroke-width="1.5"/>
</svg>
