<svg width="22" height="16" viewBox="0 0 22 16" fill="none" xmlns="http://www.w3.org/2000/svg">
<path d="M10.705 13.1857C10.9735 13.4461 10.9735 13.8682 10.705 14.1285C10.4365 14.3889 10.0012 14.3889 9.73275 14.1285L3.89912 8.47168C3.77019 8.34666 3.69775 8.17709 3.69775 8.00028C3.69775 7.82347 3.77019 7.6539 3.89912 7.52887L9.73275 1.87202C10.0012 1.61167 10.4365 1.61167 10.705 1.87202C10.9735 2.13237 10.9735 2.55448 10.705 2.81483L6.04502 7.33362H17.6146C17.9943 7.33362 18.3021 7.63209 18.3021 8.00028C18.3021 8.36847 17.9943 8.66695 17.6146 8.66695H6.04503L10.705 13.1857Z" fill="black"/>
</svg>
