<svg width="187" height="139" viewBox="0 0 187 139" fill="none" xmlns="http://www.w3.org/2000/svg">
<g opacity="0.5">
<rect width="187" height="139" fill="white"/>
<path d="M11 51C11 48.7909 12.7909 47 15 47H48C50.2091 47 52 48.7909 52 51V52.378V92C52 94.2091 50.2091 96 48 96H15C12.7909 96 11 94.2091 11 92V52.378V51Z" fill="white"/>
<path d="M11 52.378V92C11 94.2091 12.7909 96 15 96H48C50.2091 96 52 94.2091 52 92V52.378M11 52.378V51C11 48.7909 12.7909 47 15 47H48C50.2091 47 52 48.7909 52 51V52.378M11 52.378H52M15.4565 57.1585H46.3551M15.4565 61.6402H32.0942M15.4565 65.5244H35.0652M15.4565 70.0061H27.6377M15.4565 85.5427H34.471M15.4565 90.0244H25.558" stroke="#C6CBCD" stroke-width="2"/>
<path d="M66 51C66 48.7909 67.7909 47 70 47H103C105.209 47 107 48.7909 107 51V52.378V92C107 94.2091 105.209 96 103 96H70C67.7909 96 66 94.2091 66 92V52.378V51Z" fill="white"/>
<path d="M66 52.378V92C66 94.2091 67.7909 96 70 96H103C105.209 96 107 94.2091 107 92V52.378M66 52.378V51C66 48.7909 67.7909 47 70 47H103C105.209 47 107 48.7909 107 51V52.378M66 52.378H107M70.4565 57.1585H101.355M70.4565 61.6402H87.0942M70.4565 65.5244H90.0652M70.4565 70.0061H82.6377M70.4565 85.5427H89.471M70.4565 90.0244H80.558" stroke="#C6CBCD" stroke-width="2"/>
<path d="M121 36C121 33.7909 122.791 32 125 32H171C173.209 32 175 33.7909 175 36V39.0244V92C175 94.2091 173.209 96 171 96H125C122.791 96 121 94.2091 121 92V39.0244V36Z" fill="white"/>
<path d="M121 39.0244V92C121 94.2091 122.791 96 125 96H171C173.209 96 175 94.2091 175 92V39.0244M121 39.0244V36C121 33.7909 122.791 32 125 32H171C173.209 32 175 33.7909 175 36V39.0244M121 39.0244H175M126.87 45.2683H167.565M126.87 51.122H148.783M126.87 56.1951H152.696M126.87 62.0488H142.913M126.87 82.3415H151.913M126.87 88.1951H140.174" stroke="#79BE70" stroke-width="2"/>
<path d="M120.592 62.6409C120.649 63.085 120.661 63.5519 120.774 63.9733C124.487 76.8416 128.222 89.7099 131.935 102.578C132.128 103.227 132.413 103.808 133.108 104.036C133.905 104.298 134.668 103.945 135.123 103.125C136.729 100.21 138.335 97.2942 139.94 94.3789C140.031 94.2195 140.122 94.0487 140.236 93.8437C140.384 94.0259 140.521 94.1739 140.635 94.322C143.755 98.3191 146.876 102.305 149.996 106.302C150.668 107.168 151.146 107.224 152.023 106.553C153.822 105.152 155.621 103.751 157.421 102.339C158.252 101.69 158.309 101.189 157.648 100.346C154.426 96.2238 151.203 92.1013 147.98 87.9675C147.855 87.8195 147.741 87.6601 147.582 87.4323C148.117 87.2387 148.618 87.0451 149.119 86.8629C151.875 85.8608 154.642 84.8473 157.409 83.8451C157.888 83.6743 158.286 83.4124 158.514 82.9569C158.878 82.2167 158.616 81.3284 157.91 80.8843C157.74 80.7818 157.557 80.6793 157.375 80.5882C146.09 74.3704 134.793 68.1526 123.519 61.9121C122.608 61.411 121.822 61.2743 120.979 61.9348C120.854 62.174 120.718 62.4131 120.592 62.6409Z" fill="white"/>
<path d="M120.592 62.6409C120.649 63.085 120.661 63.5519 120.774 63.9733C124.487 76.8416 128.222 89.7099 131.935 102.578C132.128 103.227 132.413 103.808 133.108 104.036C133.905 104.298 134.668 103.945 135.123 103.125C136.729 100.21 138.335 97.2942 139.94 94.3789C140.031 94.2195 140.122 94.0487 140.236 93.8437C140.384 94.0259 140.521 94.1739 140.635 94.322C143.755 98.3191 146.876 102.305 149.996 106.302C150.668 107.168 151.146 107.224 152.023 106.553C153.822 105.152 155.621 103.751 157.421 102.339C158.252 101.69 158.309 101.189 157.648 100.346C154.426 96.2238 151.203 92.1013 147.98 87.9675C147.855 87.8195 147.741 87.6601 147.582 87.4323C148.117 87.2387 148.618 87.0451 149.119 86.8629C151.875 85.8608 154.642 84.8473 157.409 83.8451C157.888 83.6743 158.286 83.4124 158.514 82.9569C158.878 82.2167 158.616 81.3284 157.91 80.8843C157.74 80.7818 157.557 80.6793 157.375 80.5882C146.09 74.3704 134.793 68.1526 123.519 61.9121C122.608 61.411 121.822 61.2743 120.979 61.9348C120.854 62.174 120.718 62.4131 120.592 62.6409Z" stroke="#6E7072" stroke-width="2" stroke-linecap="round" stroke-linejoin="round"/>
</g>
</svg>
