<svg width="187" height="139" viewBox="0 0 187 139" fill="none" xmlns="http://www.w3.org/2000/svg">
<rect width="187" height="139" fill="white"/>
<path d="M68.145 22.6401L124.985 22C125.445 22 125.869 22.1778 126.187 22.5334C126.505 22.889 126.682 23.3512 126.682 23.8491L127 113.493C127 114.488 126.258 115.342 125.303 115.342L61.5349 116.053C61.0753 116.053 60.6512 115.875 60.333 115.519C60.0149 115.164 59.8382 114.702 59.8382 114.204L59.52 34.6589" fill="white"/>
<path d="M68.145 22.6401L124.985 22C125.445 22 125.869 22.1778 126.187 22.5334C126.505 22.889 126.682 23.3512 126.682 23.8491L127 113.493C127 114.488 126.258 115.342 125.303 115.342L61.5349 116.053C61.0753 116.053 60.6512 115.875 60.333 115.519C60.0149 115.164 59.8382 114.702 59.8382 114.204L59.52 34.6589" stroke="#79BE70" stroke-width="2" stroke-miterlimit="10" stroke-linecap="round" stroke-linejoin="round"/>
<path d="M59.52 34.3412L68.145 22.6423L68.3217 34.3412H59.52Z" fill="white" stroke="#79BE70" stroke-width="2" stroke-miterlimit="10" stroke-linecap="round" stroke-linejoin="round"/>
<path d="M115.231 32.8017C115.231 33.4563 114.703 33.9884 114.048 33.9933L73.5358 34.2954C72.8649 34.3004 72.3184 33.7579 72.3184 33.087C72.3184 32.4227 72.8545 31.883 73.5188 31.8786L114.032 31.61C114.693 31.6056 115.231 32.1404 115.231 32.8017Z" fill="#E4F0E4" stroke="#E4F0E4" stroke-width="2" stroke-miterlimit="10" stroke-linecap="round" stroke-linejoin="round"/>
<path d="M113.179 41.1643C114.841 41.1643 116.184 42.5155 116.184 44.1868V44.6846C116.184 46.3559 114.841 47.7071 113.179 47.7071H73.6599C71.9985 47.7071 70.6553 46.3559 70.6553 44.6846V44.1868C70.6553 42.5155 71.9985 41.1643 73.6599 41.1643H113.179Z" fill="#EBEEF1"/>
<path d="M112.796 61.1178C114.457 61.1178 115.8 62.4691 115.8 64.1403V77.6526C115.8 79.3239 114.457 80.6751 112.796 80.6751H73.2409C71.5796 80.6751 70.2363 79.3239 70.2363 77.6526V64.1048C70.2363 62.4335 71.5796 61.0823 73.2409 61.0823H112.796V61.1178Z" fill="#EBEEF1"/>
<path d="M96.813 50.8391C98.4744 50.8391 99.8176 52.1903 99.8176 53.8616V54.3594C99.8176 56.0307 98.4744 57.3819 96.813 57.3819H73.6599C71.9985 57.3819 70.6553 56.0307 70.6553 54.3594V53.8616C70.6553 52.1903 71.9985 50.8391 73.6599 50.8391H96.813Z" fill="#EBEEF1"/>
<path d="M108.125 98.1341C111.796 98.1341 114.771 95.1093 114.771 91.378C114.771 87.6467 111.796 84.6218 108.125 84.6218C104.455 84.6218 101.48 87.6467 101.48 91.378C101.48 95.1093 104.455 98.1341 108.125 98.1341Z" stroke="#C6CBCD" stroke-width="2" stroke-linecap="round" stroke-linejoin="round" stroke-dasharray="7.8 7.8"/>
<path d="M108.135 94.4707C109.814 94.4707 111.175 93.0856 111.175 91.3771C111.175 89.6685 109.814 88.2834 108.135 88.2834C106.456 88.2834 105.095 89.6685 105.095 91.3771C105.095 93.0856 106.456 94.4707 108.135 94.4707Z" stroke="#C6CBCD" stroke-width="2" stroke-linecap="round" stroke-linejoin="round" stroke-dasharray="8.38 8.38"/>
<path d="M71.2866 95.2521C71.5341 94.8609 71.7815 94.4698 72.0643 94.0786" stroke="#C6CBCD" stroke-width="2" stroke-linecap="round" stroke-linejoin="round"/>
<path d="M73.1313 92.6184C73.7323 91.9072 74.3332 91.2316 75.0048 90.5916" stroke="#C6CBCD" stroke-width="2" stroke-linecap="round" stroke-linejoin="round" stroke-dasharray="4.79 4.79"/>
<path d="M75.6758 89.9537C76.0293 89.6336 76.3827 89.3492 76.7716 89.0647C76.7009 89.527 76.5948 89.9892 76.4181 90.4159" stroke="#C6CBCD" stroke-width="2" stroke-linecap="round" stroke-linejoin="round"/>
<path d="M75.2111 92.9391C74.893 93.6503 74.7163 94.397 74.787 95.1793C74.8223 95.3571 74.8577 95.5705 74.999 95.6772C75.1051 95.7483 75.2111 95.7483 75.3172 95.7483C75.9888 95.7483 76.5544 95.286 77.1906 95.0371C77.2967 95.0015 77.4027 94.966 77.5088 95.0015C77.8976 95.0727 77.8623 95.7483 78.1097 96.0683C78.3218 96.3528 78.7106 96.3883 79.0288 96.2461C79.3469 96.1039 79.559 95.8549 79.7711 95.5705C81.3264 93.6147 82.2808 91.0901 82.4575 88.5299C82.4929 88.1743 82.4222 87.712 82.1041 87.6409C81.8566 87.6053 81.6445 87.8187 81.5031 87.9965C81.1143 88.4587 80.7255 88.9921 80.6194 89.5966C80.478 90.2011 80.6548 90.9478 81.1497 91.2679C81.998 91.8013 83.1645 90.9123 83.9775 91.4812C84.2957 91.6946 84.4724 92.0502 84.7905 92.228C85.1087 92.4057 85.5328 92.3346 85.851 92.1213C86.1691 91.9079 86.4166 91.5879 86.6286 91.2679C87.3356 90.2722 87.9719 89.2055 88.5728 88.1387" stroke="#C6CBCD" stroke-width="2" stroke-linecap="round" stroke-linejoin="round" stroke-dasharray="7.24 7.24"/>
<path d="M89.2102 86.8944C89.4222 86.4677 89.6343 86.041 89.8111 85.6143C89.599 86.041 89.3869 86.4321 89.1748 86.8588" stroke="#C6CBCD" stroke-width="2" stroke-linecap="round" stroke-linejoin="round"/>
<path d="M88.008 89.3496C87.3718 90.8431 86.8415 92.3721 86.5941 94.0078C86.5588 94.3278 86.5234 94.719 86.7355 94.9679C87.0183 95.3235 87.5485 95.1812 87.9373 94.9679C88.3262 94.7545 88.715 94.3989 89.1392 94.4701C89.3159 94.5056 89.4927 94.6123 89.7048 94.6123C89.8815 94.6123 90.0229 94.5056 90.1289 94.399" stroke="#C6CBCD" stroke-width="2" stroke-linecap="round" stroke-linejoin="round" stroke-dasharray="7.11 7.11"/>
<path d="M91.0894 93.3623C91.4075 93.0067 91.7256 92.6511 92.0438 92.3311" stroke="#C6CBCD" stroke-width="2" stroke-linecap="round" stroke-linejoin="round"/>
<path d="M115.376 103.324C116.189 103.324 116.826 103.608 116.826 103.964V105.742C116.826 106.097 116.154 106.382 115.376 106.382H97.7022C96.8892 106.382 96.2529 106.097 96.2529 105.742V103.964C96.2529 103.608 96.9245 103.324 97.7022 103.324H115.376Z" stroke="#C6CBCD" stroke-width="2.9226" stroke-linecap="round" stroke-linejoin="round" stroke-dasharray="7.45 7.45"/>
<path d="M72.0062 63.9836L53.993 45.7923L50.4494 42.2136L46.9058 38.635L40.9998 44.5994L44.5434 48.178L66.1002 69.948L75.5498 73.8248L72.0062 63.9836Z" fill="white"/>
<path d="M72.0062 63.9836L53.993 45.7923L50.4494 42.2136M72.0062 63.9836L75.5498 73.8248L66.1002 69.948M72.0062 63.9836L66.1002 69.948M66.1002 69.948L44.5434 48.178M50.4494 42.2136L46.9058 38.635L40.9998 44.5994L44.5434 48.178M50.4494 42.2136L44.5434 48.178" stroke="#6E7072" stroke-width="2" stroke-linejoin="round"/>
</svg>
