<svg width="187" height="139" viewBox="0 0 187 139" fill="none" xmlns="http://www.w3.org/2000/svg">
<g opacity="0.5">
<rect width="187" height="139" fill="white"/>
<path d="M156.983 20.4438C155.292 20.3941 153.895 21.7511 153.895 23.4425V115.55C153.895 117.331 155.437 118.719 157.208 118.533L163.509 117.872C166.061 117.604 167.997 115.448 167.987 112.881L167.669 25.5949C167.659 22.8979 165.512 20.6946 162.816 20.6154L156.983 20.4438Z" fill="white" stroke="#C6CBCD" stroke-width="2"/>
<rect x="19" y="28.6841" width="110.607" height="84.3198" rx="9" stroke="#C6CBCD" stroke-width="2"/>
<rect x="25.2275" y="34.9094" width="98.1551" height="71.8681" rx="3" stroke="#C6CBCD" stroke-width="2"/>
<path d="M35.9122 40.4435H34.9122V41.4435V94.7093V95.7093H35.9122H112.698H113.698V94.7093V41.4435V40.4435H112.698H35.9122Z" stroke="#C6CBCD" stroke-width="2"/>
<rect x="117.924" y="38.3689" width="5.45881" height="19.2941" rx="2.72941" stroke="#C6CBCD" stroke-width="2"/>
<rect x="117.924" y="82.6423" width="5.45881" height="19.2941" rx="2.72941" stroke="#C6CBCD" stroke-width="2"/>
<path d="M125.745 33.5974C123.933 34.3969 122.764 36.191 122.764 38.1719V102.68C122.764 104.752 124.042 106.61 125.978 107.35L153.258 117.781C156.531 119.032 160.044 116.615 160.044 113.11V26.1367C160.044 22.5243 156.33 20.104 153.025 21.5621L125.745 33.5974Z" fill="white" stroke="#C6CBCD" stroke-width="2"/>
<path d="M34.5273 112.388H33.5273V113.388V114.922C33.5273 117.683 35.7659 119.922 38.5273 119.922H47.1297C49.8911 119.922 52.1297 117.683 52.1297 114.922V113.388V112.388H51.1297H34.5273Z" stroke="#C6CBCD" stroke-width="2"/>
<path d="M97.4766 112.388H96.4766V113.388V114.922C96.4766 117.683 98.7151 119.922 101.477 119.922H110.079C112.84 119.922 115.079 117.683 115.079 114.922V113.388V112.388H114.079H97.4766Z" stroke="#C6CBCD" stroke-width="2"/>
<path d="M28.6484 47.3237L36.9496 101.973L45.2507 96.7848L37.6414 49.7449L28.6484 47.3237Z" fill="white" stroke="#79BE70" stroke-width="2" stroke-linejoin="round"/>
<path d="M33.1426 47.3235L41.4437 101.973L49.7449 96.7845L42.1355 49.7447L33.1426 47.3235Z" fill="white" stroke="#79BE70" stroke-width="2" stroke-linejoin="round"/>
<path d="M37.9854 47.3237L46.2865 101.973L54.5877 96.7848L46.9783 49.7449L37.9854 47.3237Z" fill="white" stroke="#79BE70" stroke-width="2" stroke-linejoin="round"/>
<path d="M100.937 101.974H50.4385L59.0855 94.7102H97.8242L100.937 101.974Z" fill="white" stroke="#79BE70" stroke-width="2" stroke-linejoin="round"/>
<path d="M100.937 99.2066H50.4385L59.0855 91.9431H97.8242L100.937 99.2066Z" fill="white" stroke="#79BE70" stroke-width="2" stroke-linejoin="round"/>
<path d="M100.937 96.44H50.4385L59.0855 89.1765H97.8242L100.937 96.44Z" fill="white" stroke="#79BE70" stroke-width="2" stroke-linejoin="round"/>
<path d="M100.937 93.6729H50.4385L59.0855 86.4094H97.8242L100.937 93.6729Z" fill="white" stroke="#79BE70" stroke-width="2" stroke-linejoin="round"/>
<path d="M100.937 90.9058H50.4385L59.0855 83.6423H97.8242L100.937 90.9058Z" fill="white" stroke="#79BE70" stroke-width="2" stroke-linejoin="round"/>
</g>
</svg>
