<svg width="30" height="26" fill="none" xmlns="http://www.w3.org/2000/svg"><path fill-rule="evenodd" clip-rule="evenodd" d="M2.062 11.193c8.053-3.67 13.423-6.088 16.11-7.257C25.844.599 27.438.019 28.477 0c.228-.004.74.055 1.07.336.28.237.357.558.393.782.037.225.083.737.047 1.138-.416 4.568-2.215 15.653-3.13 20.77-.387 2.164-1.15 2.89-1.888 2.961-1.604.155-2.822-1.109-4.376-2.174-2.431-1.666-3.805-2.704-6.165-4.33-2.727-1.88-.96-2.913.595-4.601.407-.442 7.475-7.165 7.612-7.775.017-.077.033-.36-.129-.511-.161-.15-.4-.099-.572-.058-.244.058-4.128 2.743-11.652 8.054-1.102.792-2.1 1.178-2.995 1.157-.987-.022-2.884-.583-4.295-1.062-1.73-.588-3.104-.9-2.985-1.898.063-.52.748-1.052 2.055-1.596Z" fill="#fff"/></svg>