<svg width="35" height="35" viewBox="0 0 35 35" fill="none" xmlns="http://www.w3.org/2000/svg">
<path d="M18.4167 29C16.5935 29 14.9729 28.7566 13.5549 28.2698C12.1426 27.7886 10.9503 27.0782 9.9779 26.1386C9.00552 25.2046 8.26756 24.0639 7.76401 22.7167C7.26046 21.3695 7.00579 19.8298 7 18.0976C7.00579 16.4051 7.26335 14.8796 7.77269 13.521C8.28203 12.1568 9.02578 10.9907 10.0039 10.0228C10.9821 9.04914 12.1773 8.30194 13.5896 7.78117C15.0018 7.26039 16.608 7 18.4081 7C20.1039 7 21.6059 7.2519 22.914 7.75569C24.2278 8.25949 25.3362 8.96141 26.2391 9.86144C27.1479 10.7558 27.8337 11.803 28.2968 13.0031C28.7656 14.1975 29 15.4938 29 16.8919C29 17.8599 28.9248 18.7769 28.7743 19.643C28.6238 20.5034 28.3662 21.2676 28.0016 21.9355C27.6427 22.6035 27.1536 23.1356 26.5343 23.5318C25.915 23.9224 25.1394 24.1347 24.2076 24.1687C23.623 24.197 23.1108 24.1432 22.6709 24.0073C22.231 23.8715 21.875 23.6592 21.603 23.3705C21.3368 23.0762 21.1689 22.7167 21.0994 22.2922H20.9953C20.8621 22.6318 20.6104 22.9431 20.2399 23.2262C19.8753 23.5035 19.4238 23.7215 18.8856 23.88C18.3473 24.0328 17.7482 24.0951 17.0884 24.0668C16.3823 24.0328 15.7282 23.8743 15.1263 23.5913C14.5301 23.3026 14.0092 22.9007 13.5635 22.3856C13.1237 21.8648 12.7822 21.2365 12.5391 20.5006C12.296 19.7647 12.1744 18.9298 12.1744 17.9958C12.1744 17.0844 12.3076 16.2806 12.5738 15.5843C12.84 14.8881 13.196 14.2937 13.6417 13.8012C14.0931 13.3088 14.6025 12.9238 15.1697 12.6465C15.7369 12.3634 16.3215 12.1823 16.9234 12.103C17.5485 12.0181 18.136 12.0266 18.6859 12.1285C19.2357 12.2304 19.693 12.3861 20.0576 12.5955C20.428 12.805 20.6596 13.0342 20.7522 13.2833H20.8737V12.3323H23.296V20.4157C23.3018 20.8402 23.4059 21.1827 23.6085 21.4431C23.8169 21.7035 24.1063 21.8337 24.4767 21.8337C24.9398 21.8337 25.3131 21.6553 25.5967 21.2987C25.8861 20.9364 26.0944 20.3817 26.2218 19.6345C26.3549 18.8816 26.4186 17.9193 26.4128 16.7476C26.4186 15.7853 26.2883 14.9135 26.0221 14.1324C25.7616 13.3456 25.3912 12.655 24.9108 12.0606C24.4304 11.4662 23.8545 10.9709 23.1831 10.5747C22.5175 10.1728 21.7766 9.86993 20.9605 9.66615C20.1444 9.46237 19.2733 9.36048 18.3473 9.36048C16.9292 9.36048 15.6819 9.57275 14.6054 9.9973C13.5288 10.4162 12.6259 11.0134 11.8966 11.7889C11.1731 12.5644 10.6262 13.4842 10.2557 14.5484C9.89108 15.607 9.70876 16.7787 9.70876 18.0637C9.70876 19.4392 9.89976 20.6591 10.2818 21.7233C10.6696 22.7818 11.2368 23.6734 11.9834 24.3979C12.7301 25.1225 13.6532 25.6716 14.753 26.0452C15.8585 26.4188 17.1289 26.6056 18.5643 26.6056C19.2242 26.6056 19.8695 26.5546 20.5004 26.4527C21.1313 26.3508 21.6985 26.232 22.2021 26.0961C22.7056 25.9602 23.0934 25.8414 23.3654 25.7395L24.1034 27.8962C23.7445 28.0773 23.2584 28.2528 22.6448 28.4226C22.0371 28.5924 21.3657 28.7311 20.6306 28.8387C19.9013 28.9462 19.1634 29 18.4167 29ZM17.809 21.6299C18.5441 21.6299 19.1315 21.4912 19.5714 21.2138C20.0113 20.9308 20.3268 20.5119 20.5178 19.9572C20.7088 19.4024 20.8014 18.7118 20.7956 17.8854C20.7956 17.1155 20.6972 16.4844 20.5004 15.9919C20.3036 15.4994 19.9882 15.1343 19.5541 14.8966C19.12 14.6588 18.5441 14.5399 17.8264 14.5399C17.1781 14.5399 16.6254 14.6843 16.1681 14.973C15.7167 15.2617 15.3694 15.6607 15.1263 16.1702C14.889 16.674 14.7703 17.2486 14.7703 17.8939C14.7703 18.5392 14.8658 19.1477 15.0568 19.7194C15.2536 20.2855 15.572 20.7468 16.0118 21.1034C16.4575 21.4544 17.0566 21.6299 17.809 21.6299Z" fill="#969C9E"/>
</svg>
