<svg width="14" height="14" viewBox="0 0 14 14" fill="none" xmlns="http://www.w3.org/2000/svg">
<path fill-rule="evenodd" clip-rule="evenodd" d="M14 7C14 10.866 10.866 14 7 14C3.13401 14 0 10.866 0 7C0 3.13401 3.13401 0 7 0C10.866 0 14 3.13401 14 7Z" fill="#79BE70"/>
<path fill-rule="evenodd" clip-rule="evenodd" d="M11.0982 4.51169C10.7857 4.19921 10.2792 4.19925 9.96675 4.51166L6.021 8.45746L4.6978 7.13426C4.38533 6.82177 3.87879 6.8219 3.56638 7.13425C3.2539 7.44669 3.25393 7.95325 3.56637 8.26569L5.45528 10.1546C5.76779 10.4671 6.27451 10.4668 6.58672 10.1546L11.0982 5.64312C11.4107 5.33065 11.4106 4.8241 11.0982 4.51169ZM6.02164 9.08539L6.02184 9.08559L10.2819 4.82553C10.3083 4.79906 10.3379 4.77765 10.3695 4.76127C10.3376 4.7777 10.3077 4.79927 10.281 4.82597L6.02164 9.08539ZM6.18488 9.9045C6.05095 9.97403 5.88193 9.95268 5.76957 9.84029L3.88065 7.9514C3.74178 7.81253 3.74178 7.5874 3.88065 7.44855C3.90714 7.42207 3.93677 7.40063 3.96833 7.38425C3.93708 7.40058 3.90775 7.42186 3.8815 7.44811C3.74263 7.58696 3.74263 7.81209 3.8815 7.95096L5.77041 9.83985C5.88254 9.95201 6.05109 9.97351 6.18488 9.9045Z" fill="white"/>
</svg>
