<svg width="35" height="35" viewBox="0 0 35 35" fill="none" xmlns="http://www.w3.org/2000/svg">
<path fill-rule="evenodd" clip-rule="evenodd" d="M26.4 8.45C24.15 6.2 21.15 5 18 5C11.4 5 6 10.4 6 17C6 19.1 6.60001 21.2 7.65001 23L6 29L12.3 27.35C14.1 28.25 16.05 28.85 18 28.85C24.6 28.85 30 23.45 30 16.85C30 13.7 28.65 10.7 26.4 8.45ZM18 26.9C16.2 26.9 14.4 26.45 12.9 25.55L12.6 25.4L8.84999 26.45L9.90001 22.85L9.59999 22.4C8.54999 20.75 8.09999 18.95 8.09999 17.15C8.09999 11.75 12.6 7.25 18 7.25C20.7 7.25 23.1 8.3 25.05 10.1C27 12.05 27.9 14.45 27.9 17.15C27.9 22.4 23.55 26.9 18 26.9ZM23.4 19.4C23.1 19.25 21.6 18.5 21.3 18.5C21 18.35 20.85 18.35 20.7 18.65C20.55 18.95 19.95 19.55 19.8 19.85C19.65 20 19.5 20 19.2 20C18.9 19.85 18 19.55 16.8 18.5C15.9 17.75 15.3 16.7 15.15 16.4C15 16.1 15.15 15.95 15.3 15.8C15.45 15.65 15.6 15.5 15.75 15.35C15.9 15.2 15.9 15.05 16.05 14.9C16.2 14.75 16.05 14.6 16.05 14.45C16.05 14.3 15.45 12.8 15.15 12.2C15 11.75 14.7 11.75 14.55 11.75C14.4 11.75 14.25 11.75 13.95 11.75C13.8 11.75 13.5 11.75 13.2 12.05C12.9 12.35 12.15 13.1 12.15 14.6C12.15 16.1 13.2 17.45 13.35 17.75C13.5 17.9 15.45 21.05 18.45 22.25C21 23.3 21.45 23 22.05 23C22.65 23 23.85 22.25 24 21.65C24.3 20.9 24.3 20.3 24.15 20.3C24 19.55 23.7 19.55 23.4 19.4Z" fill="#79BE70"/>
</svg>
