<svg width="30" height="26" viewBox="0 0 30 26" fill="none" xmlns="http://www.w3.org/2000/svg">
<path fill-rule="evenodd" clip-rule="evenodd" d="M2.06234 11.1928C10.1154 7.52363 15.4854 5.10467 18.1722 3.93595C25.8438 0.599007 27.4379 0.0193449 28.4769 0.000204084C28.7054 -0.00400572 29.2163 0.0552205 29.5473 0.336076C29.8268 0.573225 29.9037 0.89358 29.9405 1.11842C29.9773 1.34327 30.0231 1.85547 29.9867 2.25568C29.5709 6.8237 27.7721 17.9091 26.857 23.0253C26.4697 25.1902 25.7073 25.9161 24.9691 25.9871C23.3649 26.1415 22.1467 24.8784 20.593 23.8133C18.1617 22.1466 16.7882 21.1091 14.4282 19.4827C11.7008 17.6031 13.4688 16.57 15.0232 14.8817C15.4299 14.4399 22.4981 7.7166 22.6349 7.10669C22.652 7.03041 22.6679 6.74607 22.5063 6.59594C22.3448 6.4458 22.1064 6.49714 21.9344 6.53797C21.6905 6.59585 17.8065 9.28057 10.2823 14.5921C9.17983 15.3838 8.18124 15.7696 7.28655 15.7494C6.30022 15.7271 4.40291 15.1661 2.99246 14.6867C1.26249 14.0986 -0.112459 13.7877 0.00726778 12.7889C0.0696291 12.2687 0.754654 11.7367 2.06234 11.1928Z" fill="white"/>
</svg>
