<svg width="25" height="24" viewBox="0 0 25 24" fill="none" xmlns="http://www.w3.org/2000/svg">
<path fill-rule="evenodd" clip-rule="evenodd" d="M12.75 21C17.7206 21 21.75 16.9706 21.75 12C21.75 7.02944 17.7206 3 12.75 3C7.77944 3 3.75 7.02944 3.75 12C3.75 16.9706 7.77944 21 12.75 21ZM12.75 23C18.8251 23 23.75 18.0751 23.75 12C23.75 5.92487 18.8251 1 12.75 1C6.67487 1 1.75 5.92487 1.75 12C1.75 18.0751 6.67487 23 12.75 23Z" fill="#C6CBCD"/>
<path d="M15.5784 7.75736C15.969 7.36683 16.6021 7.36684 16.9926 7.75736C17.3832 8.14788 17.3832 8.78105 16.9926 9.17157L9.92157 16.2426C9.53105 16.6332 8.89788 16.6332 8.50736 16.2426C8.11683 15.8521 8.11683 15.219 8.50736 14.8284L15.5784 7.75736Z" fill="#C6CBCD"/>
<path d="M8.50736 9.17157C8.11683 8.78105 8.11684 8.14788 8.50736 7.75736C8.89788 7.36683 9.53105 7.36683 9.92157 7.75736L16.9926 14.8284C17.3832 15.2189 17.3832 15.8521 16.9926 16.2426C16.6021 16.6332 15.969 16.6332 15.5784 16.2426L8.50736 9.17157Z" fill="#C6CBCD"/>
</svg>
