<svg width="16" height="16" fill="none" xmlns="http://www.w3.org/2000/svg"><g clip-path="url(#a)" fill="#000"><path d="M8 16.119c-1.706-.003-3.316-.503-4.656-1.453a8.188 8.188 0 0 1-2.832-3.572 8.198 8.198 0 0 1-.521-4.525C.269 4.95 1.05 3.456 2.256 2.25 3.696.744 5.791-.119 8-.119c2.21 0 4.303.863 5.747 2.366 1.203 1.206 1.987 2.7 2.262 4.319a8.198 8.198 0 0 1-.521 4.525 8.224 8.224 0 0 1-2.832 3.572c-1.34.95-2.95 1.453-4.656 1.456Zm0-14.75a6.632 6.632 0 0 0-6.625 6.625c.187 4.528 3.566 6.59 6.625 6.59 3.06 0 6.438-2.062 6.625-6.593 0-3.653-2.972-6.622-6.625-6.622Zm2.469 9.844a.755.755 0 0 1-.532-.22L8 9.057h-.003c-.447 0-.828-.262-.988-.684-.153-.4-.062-.831.24-1.131V3.619A.736.736 0 0 1 8 2.872c.347 0 .728.231.75.74v3.629c.2.2.312.472.312.756L11 9.934a.755.755 0 0 1 0 1.063.765.765 0 0 1-.531.216Z"/><path d="M8 16.056c-1.694-.003-3.29-.5-4.622-1.44A8.143 8.143 0 0 1 .57 11.072a8.176 8.176 0 0 1-.52-4.494c.275-1.606 1.053-3.087 2.247-4.287C3.728.8 5.807-.056 8-.056c2.194 0 4.272.856 5.703 2.347 1.194 1.197 1.972 2.678 2.247 4.287a8.13 8.13 0 0 1-.519 4.49 8.142 8.142 0 0 1-2.809 3.545c-1.331.943-2.928 1.44-4.622 1.443Zm0-14.75c-3.687 0-6.687 3-6.687 6.688.19 4.569 3.6 6.65 6.687 6.65 3.088 0 6.5-2.081 6.688-6.656 0-3.682-3-6.682-6.688-6.682Zm2.469 9.844a.693.693 0 0 1-.488-.2L8.025 8.994h-.028a.981.981 0 0 1-.931-.644.978.978 0 0 1 .244-1.081v-3.65a.673.673 0 0 1 .687-.685c.319 0 .669.213.688.682v3.65a.996.996 0 0 1 .312.753l1.956 1.956a.693.693 0 0 1 0 .975.68.68 0 0 1-.484.2Z"/><path d="M8 16.056c-1.694-.003-3.29-.5-4.622-1.44A8.143 8.143 0 0 1 .57 11.072a8.176 8.176 0 0 1-.52-4.494c.275-1.606 1.053-3.087 2.247-4.287C3.728.8 5.807-.056 8-.056c2.194 0 4.272.856 5.703 2.347 1.194 1.197 1.972 2.678 2.247 4.287a8.13 8.13 0 0 1-.519 4.49 8.142 8.142 0 0 1-2.809 3.545c-1.331.943-2.928 1.44-4.622 1.443Zm0-14.75c-3.687 0-6.687 3-6.687 6.688.19 4.569 3.6 6.65 6.687 6.65 3.088 0 6.5-2.081 6.688-6.656 0-3.682-3-6.682-6.688-6.682Zm2.469 9.844a.693.693 0 0 1-.488-.2L8.025 8.994h-.028a.981.981 0 0 1-.931-.644.978.978 0 0 1 .244-1.081v-3.65a.673.673 0 0 1 .687-.685c.319 0 .669.213.688.682v3.65a.996.996 0 0 1 .312.753l1.956 1.956a.693.693 0 0 1 0 .975.68.68 0 0 1-.484.2Z"/><path d="M8 15.994c-7.1-.01-10.672-8.631-5.656-13.66 2.978-3.103 8.334-3.103 11.312 0C18.672 7.363 15.1 15.984 8 15.994Zm0-14.75a6.758 6.758 0 0 0-6.75 6.75c.372 8.956 13.131 8.953 13.5 0A6.756 6.756 0 0 0 8 1.244Zm2.91 8.775L8.937 8.044a.924.924 0 0 0-.313-.75V3.619c-.034-.828-1.219-.828-1.25 0v3.675c-.653.584-.21 1.681.678 1.634l1.975 1.975a.623.623 0 1 0 .881-.884Z"/></g><defs><clipPath id="a"><path fill="#fff" d="M0 0h16v16H0z"/></clipPath></defs></svg>