<svg width="31" height="31" fill="none" xmlns="http://www.w3.org/2000/svg"><path d="M4.063 14.031c.383-4.377 3.334-8.017 7.337-9.406-.285.473-.543.997-.774 1.558-.859 2.084-1.402 4.832-1.499 7.848H4.063ZM15 2.083C7.866 2.083 2.084 7.866 2.084 15c0 7.134 5.782 12.917 12.916 12.917S27.917 22.134 27.917 15c0-7.134-5.783-12.916-12.917-12.916Zm0 1.938c.338 0 .75.162 1.221.646.474.487.945 1.242 1.362 2.254.747 1.813 1.256 4.3 1.352 7.11h-7.87c.097-2.81.606-5.297 1.352-7.11.417-1.012.888-1.767 1.362-2.254.471-.484.883-.646 1.221-.646Zm5.873 10.01c-.096-3.016-.64-5.764-1.498-7.848a11.54 11.54 0 0 0-.775-1.558c4.003 1.389 6.954 5.03 7.337 9.406h-5.064Zm-1.938 1.938c-.096 2.81-.605 5.298-1.352 7.11-.416 1.012-.888 1.767-1.362 2.254-.471.484-.883.646-1.22.646-.338 0-.75-.162-1.222-.646-.474-.486-.945-1.241-1.362-2.253-.746-1.813-1.255-4.301-1.351-7.111h7.869Zm-.335 9.407c.285-.474.544-.998.775-1.559.858-2.084 1.402-4.832 1.498-7.848h5.064c-.383 4.377-3.334 8.018-7.337 9.407Zm-7.2 0c-4.003-1.39-6.954-5.03-7.337-9.407h5.064c.097 3.016.64 5.764 1.499 7.848.23.561.489 1.085.774 1.559Z" fill="#6E7072"/></svg>