<svg width="187" height="139" fill="none" xmlns="http://www.w3.org/2000/svg"><path fill="#fff" d="M0 0h187v139H0z"/><rect x="30" y="42" width="127" height="34" rx="14.258" fill="#fff" stroke="#79BE70" stroke-width="2"/><path d="M75.864 55.703c-.067-.68-.357-1.208-.868-1.584-.511-.377-1.205-.565-2.082-.565-.595 0-1.098.084-1.508.253-.41.163-.725.39-.945.682-.213.293-.32.624-.32.995a1.42 1.42 0 0 0 .194.81c.146.23.346.429.599.598.252.162.545.306.876.43.332.117.686.218 1.062.303l1.55.37c.754.17 1.445.394 2.074.675.63.28 1.175.626 1.635 1.036.461.41.818.894 1.07 1.45.26.556.391 1.194.397 1.913-.006 1.057-.275 1.973-.81 2.748-.528.77-1.292 1.368-2.292 1.795-.994.422-2.194.632-3.599.632-1.393 0-2.607-.213-3.64-.64-1.029-.427-1.833-1.06-2.411-1.897-.573-.842-.874-1.885-.902-3.126h3.531c.04.578.206 1.062.498 1.45.297.381.694.67 1.188.867.5.191 1.065.287 1.694.287.618 0 1.155-.09 1.61-.27.46-.18.817-.43 1.07-.75.253-.32.38-.688.38-1.104 0-.388-.116-.714-.346-.978-.225-.264-.556-.489-.994-.674a10.107 10.107 0 0 0-1.593-.506l-1.88-.472c-1.455-.354-2.604-.907-3.447-1.66-.843-.753-1.261-1.767-1.256-3.043-.005-1.045.273-1.958.835-2.739.567-.78 1.345-1.39 2.334-1.829.99-.438 2.113-.657 3.371-.657 1.282 0 2.4.219 3.355.657.96.439 1.708 1.048 2.242 1.83.534.78.809 1.685.826 2.713h-3.498Zm13.007-.649v2.697h-7.796v-2.697h7.796Zm-6.026-3.102h3.59v12.07c0 .331.05.59.152.775.101.18.242.306.421.38.186.073.4.11.641.11.168 0 .337-.015.506-.043.168-.034.297-.06.387-.076l.565 2.672c-.18.056-.433.12-.758.194a6.082 6.082 0 0 1-1.189.143c-.865.034-1.624-.082-2.275-.346a3.176 3.176 0 0 1-1.51-1.23c-.359-.556-.536-1.259-.53-2.107V51.953ZM94.9 68.245c-.825 0-1.561-.143-2.208-.43a3.555 3.555 0 0 1-1.534-1.289c-.37-.573-.556-1.287-.556-2.14 0-.72.132-1.324.396-1.813a3.207 3.207 0 0 1 1.079-1.18 5.236 5.236 0 0 1 1.55-.674 11.824 11.824 0 0 1 1.838-.32c.753-.079 1.36-.152 1.82-.22.462-.072.796-.18 1.004-.32.208-.14.311-.348.311-.623v-.051c0-.534-.168-.947-.505-1.239-.332-.292-.804-.438-1.416-.438-.646 0-1.16.143-1.543.43-.382.28-.634.635-.758 1.062l-3.32-.27a4.51 4.51 0 0 1 .994-2.04c.494-.578 1.132-1.022 1.913-1.331.787-.315 1.697-.472 2.73-.472.72 0 1.408.084 2.066.252a5.4 5.4 0 0 1 1.761.784c.517.354.924.81 1.222 1.366.298.55.447 1.21.447 1.98V68h-3.405v-1.795h-.101a3.655 3.655 0 0 1-.835 1.07 3.862 3.862 0 0 1-1.255.717c-.49.168-1.054.252-1.695.252Zm1.029-2.478c.528 0 .994-.103 1.399-.311.404-.214.722-.5.952-.86.23-.36.346-.767.346-1.222V62a1.92 1.92 0 0 1-.464.202 8.13 8.13 0 0 1-.649.16c-.241.045-.483.088-.724.127l-.658.093a4.44 4.44 0 0 0-1.104.295 1.766 1.766 0 0 0-.733.547c-.174.225-.262.506-.262.843 0 .49.177.863.531 1.121.36.253.815.38 1.366.38ZM104.978 68V55.054h3.48v2.259h.135c.236-.804.632-1.41 1.189-1.82a3.123 3.123 0 0 1 1.921-.624 5.295 5.295 0 0 1 1.13.126v3.186a4.71 4.71 0 0 0-.7-.135 6.27 6.27 0 0 0-.817-.059c-.529 0-1.001.115-1.416.346a2.55 2.55 0 0 0-.978.944c-.236.404-.354.87-.354 1.399V68h-3.59Zm17.246-12.946v2.697h-7.796v-2.697h7.796Zm-6.026-3.102h3.59v12.07c0 .331.051.59.152.775.101.18.242.306.421.38.186.073.399.11.641.11.168 0 .337-.015.506-.043.168-.034.297-.06.387-.076l.565 2.672c-.18.056-.433.12-.759.194a6.073 6.073 0 0 1-1.188.143c-.865.034-1.624-.082-2.276-.346a3.172 3.172 0 0 1-1.508-1.23c-.36-.556-.537-1.259-.531-2.107V51.953Z" fill="#969C9E"/><path d="M60.795 59.931c-.05.383-.06.785-.157 1.148-3.197 11.08-6.413 22.16-9.61 33.241-.167.56-.412 1.06-1.01 1.256-.686.225-1.343-.079-1.736-.785l-4.148-7.53c-.078-.138-.156-.285-.255-.462-.127.157-.245.285-.343.412-2.687 3.442-5.373 6.874-8.06 10.316-.579.745-.99.794-1.746.216a1594.576 1594.576 0 0 1-4.648-3.628c-.715-.56-.764-.99-.196-1.716 2.775-3.55 5.55-7.1 8.326-10.66.107-.127.205-.264.343-.46-.461-.167-.893-.334-1.324-.49-2.373-.864-4.756-1.736-7.139-2.6-.412-.146-.755-.372-.95-.764a1.384 1.384 0 0 1 .519-1.785c.147-.088.304-.176.46-.255 9.718-5.354 19.446-10.708 29.154-16.081.784-.432 1.46-.55 2.186.02.108.205.226.411.334.607Z" fill="#fff"/><path d="M60.795 59.931c-.05.383-.06.785-.157 1.148-3.197 11.08-6.413 22.16-9.61 33.241-.167.56-.412 1.06-1.01 1.256-.686.225-1.343-.079-1.736-.785l-4.148-7.53c-.078-.138-.156-.285-.255-.462-.127.157-.245.285-.343.412-2.687 3.442-5.373 6.874-8.06 10.316-.579.745-.99.794-1.746.216a1594.576 1594.576 0 0 1-4.648-3.628c-.715-.56-.764-.99-.196-1.716 2.775-3.55 5.55-7.1 8.326-10.66.107-.127.205-.264.343-.46-.461-.167-.893-.334-1.324-.49-2.373-.864-4.756-1.736-7.139-2.6-.412-.146-.755-.372-.95-.764a1.384 1.384 0 0 1 .519-1.785c.147-.088.304-.176.46-.255 9.718-5.354 19.446-10.708 29.154-16.081.784-.432 1.46-.55 2.186.02.108.205.226.411.334.607Z" stroke="#6E7072" stroke-width="2" stroke-linecap="round" stroke-linejoin="round"/></svg>