<svg width="18" height="18" viewBox="0 0 18 18" fill="none" xmlns="http://www.w3.org/2000/svg">
<g clip-path="url(#clip0_136_5989)">
<path d="M15.7501 16.8387H14.5888V2.6129C14.5888 2.29224 14.3288 2.03226 14.0081 2.03226H9.65331V0.580645C9.65331 0.259984 9.39336 0 9.07266 0H5.04443C4.72377 0 4.46379 0.259984 4.46379 0.580645V2.03226H3.99201C3.67135 2.03226 3.41137 2.29224 3.41137 2.6129V16.8387H2.25008C1.92942 16.8387 1.66943 17.0987 1.66943 17.4194C1.66943 17.74 1.92942 18 2.25008 18H15.7501C16.0708 18 16.3307 17.74 16.3307 17.4194C16.3307 17.0987 16.0708 16.8387 15.7501 16.8387ZM5.62508 1.16129H8.49201V2.03226H5.62508V1.16129ZM7.83879 16.8387V14.371H10.1614V16.8387H7.83879ZM11.3227 16.8387V14.371H11.5767C11.8974 14.371 12.1573 14.111 12.1573 13.7903C12.1573 13.4697 11.8974 13.2097 11.5767 13.2097C9.55699 13.2097 8.29416 13.2097 6.42347 13.2097C6.1028 13.2097 5.84282 13.4697 5.84282 13.7903C5.84282 14.111 6.1028 14.371 6.42347 14.371H6.6775V16.8387H4.57266V3.19355H13.4275V16.8387H11.3227ZM8.1654 4.89919C8.1654 5.21985 7.90542 5.47984 7.58476 5.47984H6.93153C6.61087 5.47984 6.35089 5.21985 6.35089 4.89919C6.35089 4.57853 6.61087 4.31855 6.93153 4.31855H7.58476C7.90542 4.31855 8.1654 4.57853 8.1654 4.89919ZM11.613 4.89919C11.613 5.21985 11.353 5.47984 11.0323 5.47984H10.3791C10.0584 5.47984 9.79847 5.21985 9.79847 4.89919C9.79847 4.57853 10.0584 4.31855 10.3791 4.31855H11.0323C11.353 4.31855 11.613 4.57853 11.613 4.89919ZM8.1654 7.07661C8.1654 7.39727 7.90542 7.65726 7.58476 7.65726H6.93153C6.61087 7.65726 6.35089 7.39727 6.35089 7.07661C6.35089 6.75595 6.61087 6.49597 6.93153 6.49597H7.58476C7.90542 6.49597 8.1654 6.75595 8.1654 7.07661ZM11.613 7.07661C11.613 7.39727 11.353 7.65726 11.0323 7.65726H10.3791C10.0584 7.65726 9.79847 7.39727 9.79847 7.07661C9.79847 6.75595 10.0584 6.49597 10.3791 6.49597H11.0323C11.353 6.49597 11.613 6.75595 11.613 7.07661ZM8.1654 9.25403C8.1654 9.57469 7.90542 9.83468 7.58476 9.83468H6.93153C6.61087 9.83468 6.35089 9.57469 6.35089 9.25403C6.35089 8.93337 6.61087 8.67339 6.93153 8.67339H7.58476C7.90542 8.67339 8.1654 8.93337 8.1654 9.25403ZM11.613 9.25403C11.613 9.57469 11.353 9.83468 11.0323 9.83468H10.3791C10.0584 9.83468 9.79847 9.57469 9.79847 9.25403C9.79847 8.93337 10.0584 8.67339 10.3791 8.67339H11.0323C11.353 8.67339 11.613 8.93337 11.613 9.25403ZM8.1654 11.4315C8.1654 11.7521 7.90542 12.0121 7.58476 12.0121H6.93153C6.61087 12.0121 6.35089 11.7521 6.35089 11.4315C6.35089 11.1108 6.61087 10.8508 6.93153 10.8508H7.58476C7.90542 10.8508 8.1654 11.1108 8.1654 11.4315ZM11.613 11.4315C11.613 11.7521 11.353 12.0121 11.0323 12.0121H10.3791C10.0584 12.0121 9.79847 11.7521 9.79847 11.4315C9.79847 11.1108 10.0584 10.8508 10.3791 10.8508H11.0323C11.353 10.8508 11.613 11.1108 11.613 11.4315Z" fill="black"/>
</g>
<defs>
<clipPath id="clip0_136_5989">
<rect width="18" height="18" fill="white"/>
</clipPath>
</defs>
</svg>
