<svg width="20" height="16" viewBox="0 0 20 16" fill="none" xmlns="http://www.w3.org/2000/svg">
<path d="M4.41598 4.37595L9.72261 7.9137C9.89056 8.02567 10.1094 8.02567 10.2773 7.9137L15.5839 4.37595C15.9286 4.14619 16.3942 4.23932 16.624 4.58396C16.8538 4.92861 16.7606 5.39426 16.416 5.62403L10.6933 9.43913C10.2735 9.71904 9.72646 9.71904 9.30658 9.43913L3.58393 5.62403C3.23929 5.39426 3.14616 4.92861 3.37592 4.58396C3.60568 4.23932 4.07134 4.14619 4.41598 4.37595Z" fill="black"/>
<path d="M0 3C0 1.34315 1.34315 0 3 0H17C18.6569 0 20 1.34315 20 3V13C20 14.6569 18.6569 16 17 16H3C1.34315 16 0 14.6569 0 13V3ZM3 1.5C2.17157 1.5 1.5 2.17157 1.5 3V13C1.5 13.8284 2.17157 14.5 3 14.5H17C17.8284 14.5 18.5 13.8284 18.5 13V3C18.5 2.17157 17.8284 1.5 17 1.5H3Z" fill="black"/>
</svg>
