<svg width="187" height="139" viewBox="0 0 187 139" fill="none" xmlns="http://www.w3.org/2000/svg">
<rect width="187" height="139" fill="white"/>
<path d="M45.9471 99.5033L45.9515 99.5032L107.129 98.8777L107.133 98.8777C107.48 98.8752 107.758 98.5913 107.756 98.2485L107.756 98.245L107.443 18.6396C107.443 18.6382 107.443 18.6367 107.443 18.6352C107.439 18.4644 107.37 18.2999 107.247 18.1782L107.247 18.1779C107.13 18.0623 106.97 17.9977 106.808 18.0001L106.804 18.0001L45.6262 18.6257L45.623 18.6258C45.2756 18.6282 44.9975 18.9122 45 19.2549L45 19.2584L45.3125 98.8638C45.3125 98.8653 45.3125 98.8668 45.3126 98.8683C45.3164 99.042 45.3876 99.2056 45.502 99.319L45.9471 99.5033ZM45.9471 99.5033C45.7889 99.5056 45.6276 99.4433 45.5021 99.3192L45.9471 99.5033Z" fill="white" stroke="#79BE70" stroke-width="2"/>
<path d="M97.4417 27.629L51.1519 28.2103V26.0872L97.4417 25.4995V27.629Z" stroke="#E4F0E4" stroke-width="4" stroke-linecap="round" stroke-linejoin="round"/>
<path d="M83.8076 74.1305C85.9422 72.317 88.017 70.2128 89.9521 68.2034C90.81 68.9048 95.7442 73.2838 96.7483 73.8399" stroke="#E4F0E4" stroke-width="3" stroke-linecap="round" stroke-linejoin="round"/>
<path d="M94.0693 67.4649C91.8349 65.9989 94.3219 63.4523 96.3634 64.6087C98.9303 66.0684 96.6095 69.1267 94.0693 67.4649Z" stroke="#E4F0E4" stroke-width="3" stroke-linecap="round" stroke-linejoin="round"/>
<path d="M100.334 74.1251L100.141 61.9612L83.3638 62.1761L83.5766 74.3336L100.334 74.1251Z" stroke="#C6CBCD" stroke-width="3" stroke-linecap="round" stroke-linejoin="round"/>
<path d="M82.5654 36.8871L97.4412 36.7039" stroke="#C6CBCD" stroke-width="3" stroke-linecap="round" stroke-linejoin="round"/>
<path d="M51.1528 37.2855L79.1422 36.9316" stroke="#C6CBCD" stroke-width="3" stroke-linecap="round" stroke-linejoin="round"/>
<path d="M72.644 43.6809L97.4415 43.365" stroke="#C6CBCD" stroke-width="3" stroke-linecap="round" stroke-linejoin="round"/>
<path d="M51.1528 43.9516L68.0834 43.7368" stroke="#C6CBCD" stroke-width="3" stroke-linecap="round" stroke-linejoin="round"/>
<path d="M90.353 50.1126L97.4418 50.0242" stroke="#C6CBCD" stroke-width="3" stroke-linecap="round" stroke-linejoin="round"/>
<path d="M51.1528 50.6124L84.0897 50.1953" stroke="#C6CBCD" stroke-width="3" stroke-linecap="round" stroke-linejoin="round"/>
<path d="M67.6982 57.0625L97.4432 56.6897" stroke="#C6CBCD" stroke-width="3" stroke-linecap="round" stroke-linejoin="round"/>
<path d="M51.1528 57.2706L62.83 57.1252" stroke="#C6CBCD" stroke-width="3" stroke-linecap="round" stroke-linejoin="round"/>
<path d="M51.1528 63.9316L76.9743 63.6094" stroke="#C6CBCD" stroke-width="3" stroke-linecap="round" stroke-linejoin="round"/>
<path d="M66.541 70.4399L77.2141 70.2629" stroke="#C6CBCD" stroke-width="3" stroke-linecap="round" stroke-linejoin="round"/>
<path d="M51.1528 70.5986L62.8234 70.4785" stroke="#C6CBCD" stroke-width="3" stroke-linecap="round" stroke-linejoin="round"/>
<path d="M64.2538 84.9373C64.2538 81.5441 61.5008 78.7891 58.1093 78.7891C54.7112 78.7891 51.9648 81.5441 51.9648 84.9373C51.9648 88.3306 54.7112 91.0857 58.1093 91.0857C61.5008 91.0857 64.2538 88.3306 64.2538 84.9373Z" stroke="#E4F0E4" stroke-width="3" stroke-linecap="round" stroke-linejoin="round"/>
<path d="M60.9341 84.9366C60.9341 83.3758 59.6707 82.1121 58.1079 82.1121C56.5452 82.1121 55.2817 83.3758 55.2817 84.9366C55.2817 86.4974 56.5452 87.7612 58.1079 87.7612C59.6707 87.7612 60.9341 86.4974 60.9341 84.9366Z" stroke="#E4F0E4" stroke-width="3" stroke-linecap="round" stroke-linejoin="round"/>
<path d="M90.3423 82.9797L100.809 82.8027" stroke="#C6CBCD" stroke-width="3" stroke-linecap="round" stroke-linejoin="round"/>
<path d="M90.3423 87.0746L100.809 86.8977" stroke="#C6CBCD" stroke-width="3" stroke-linecap="round" stroke-linejoin="round"/>
<path d="M67.7715 88.2313C68.9751 86.3798 70.5312 84.7495 72.3267 83.4541C72.1072 85.1223 70.5112 86.4809 70.6775 88.1491C70.6908 88.2944 70.7307 88.4587 70.857 88.5409C70.9302 88.5914 71.0233 88.6041 71.1097 88.6104C71.6617 88.6104 72.1405 88.2439 72.6592 88.0543C72.7456 88.0227 72.8387 87.9974 72.9318 88.0164C73.2643 88.0795 73.231 88.5788 73.4372 88.8442C73.6034 89.0653 73.9359 89.0969 74.1886 88.9958C74.4413 88.8947 74.6408 88.6862 74.8137 88.4777C76.1038 86.9675 76.8951 85.0402 77.0481 83.056C77.068 82.7906 77.0148 82.4368 76.7488 82.3799C76.5493 82.3357 76.3764 82.5063 76.2434 82.6579C75.9242 83.0244 75.6117 83.4226 75.4986 83.8965C75.3856 84.3704 75.5252 84.9391 75.9508 85.1792C76.6491 85.5836 77.6266 84.9075 78.2983 85.3435C78.551 85.5078 78.7106 85.7921 78.9766 85.9248C79.2492 86.0639 79.595 85.9943 79.861 85.83C80.1203 85.6657 80.3198 85.4193 80.506 85.1728C81.5301 83.8143 82.4212 82.3609 83.1593 80.8254C82.0222 82.8728 80.8718 84.9644 80.4927 87.2708C80.4528 87.5235 80.4262 87.8141 80.5991 88.01C80.8385 88.2817 81.284 88.1744 81.6032 87.9975C81.9158 87.8142 82.2416 87.5677 82.5941 87.6246C82.7537 87.6435 82.9 87.7257 83.0596 87.7194C83.279 87.7131 83.4586 87.5424 83.6115 87.3845C84.0637 86.9169 84.5159 86.4493 84.9681 85.9817" stroke="#E4F0E4" stroke-width="3" stroke-linecap="round" stroke-linejoin="round"/>
<path d="M62.5667 110.392L62.5711 110.392L123.749 109.767L123.752 109.767C124.1 109.764 124.378 109.48 124.375 109.138L124.375 109.134L124.063 29.5288C124.063 29.5273 124.063 29.5259 124.063 29.5244C124.059 29.3535 123.99 29.189 123.867 29.0674L123.866 29.0671C123.75 28.9515 123.589 28.8869 123.428 28.8892L123.424 28.8893L62.2458 29.5149L62.2426 29.5149C61.8952 29.5174 61.6171 29.8013 61.6196 30.1441L61.6197 30.1476L61.9321 109.753C61.9321 109.754 61.9322 109.756 61.9322 109.757C61.936 109.931 62.0073 110.095 62.1216 110.208L62.5667 110.392ZM62.5667 110.392C62.4086 110.395 62.2472 110.332 62.1217 110.208L62.5667 110.392Z" fill="white" stroke="#79BE70" stroke-width="2"/>
<path d="M114.054 38.5223L67.7646 39.1036V36.9805L114.054 36.3928V38.5223Z" stroke="#E4F0E4" stroke-width="4" stroke-linecap="round" stroke-linejoin="round"/>
<path d="M100.433 85.0202C102.567 83.2066 104.642 81.1024 106.577 79.093C107.435 79.7944 112.369 84.1734 113.373 84.7295" stroke="#E4F0E4" stroke-width="3" stroke-linecap="round" stroke-linejoin="round"/>
<path d="M110.695 78.3543C108.461 76.8883 110.948 74.3417 112.989 75.4981C115.556 76.9578 113.236 80.0161 110.695 78.3543Z" stroke="#E4F0E4" stroke-width="3" stroke-linecap="round" stroke-linejoin="round"/>
<path d="M116.96 85.0135L116.767 72.8496L99.9897 73.0645L100.203 85.2221L116.96 85.0135Z" stroke="#C6CBCD" stroke-width="3" stroke-linecap="round" stroke-linejoin="round"/>
<path d="M99.1772 47.7729L114.053 47.5896" stroke="#C6CBCD" stroke-width="3" stroke-linecap="round" stroke-linejoin="round"/>
<path d="M67.7646 48.1713L95.754 47.8174" stroke="#C6CBCD" stroke-width="3" stroke-linecap="round" stroke-linejoin="round"/>
<path d="M89.2559 54.5672L114.053 54.2512" stroke="#C6CBCD" stroke-width="3" stroke-linecap="round" stroke-linejoin="round"/>
<path d="M67.7646 54.8374L84.6953 54.6226" stroke="#C6CBCD" stroke-width="3" stroke-linecap="round" stroke-linejoin="round"/>
<path d="M106.965 60.9984L114.054 60.9099" stroke="#C6CBCD" stroke-width="3" stroke-linecap="round" stroke-linejoin="round"/>
<path d="M67.7646 61.4981L100.702 61.0811" stroke="#C6CBCD" stroke-width="3" stroke-linecap="round" stroke-linejoin="round"/>
<path d="M84.3101 67.9482L114.055 67.5754" stroke="#C6CBCD" stroke-width="3" stroke-linecap="round" stroke-linejoin="round"/>
<path d="M67.7646 68.1569L79.4418 68.0115" stroke="#C6CBCD" stroke-width="3" stroke-linecap="round" stroke-linejoin="round"/>
<path d="M67.7646 74.8174L93.5861 74.4951" stroke="#C6CBCD" stroke-width="3" stroke-linecap="round" stroke-linejoin="round"/>
<path d="M83.1528 81.3271L93.8259 81.1501" stroke="#C6CBCD" stroke-width="3" stroke-linecap="round" stroke-linejoin="round"/>
<path d="M67.7646 81.4829L79.4352 81.3628" stroke="#C6CBCD" stroke-width="3" stroke-linecap="round" stroke-linejoin="round"/>
<path d="M80.8729 95.826C80.8729 92.4328 78.1199 89.6777 74.7285 89.6777C71.3304 89.6777 68.584 92.4328 68.584 95.826C68.584 99.2193 71.3304 101.974 74.7285 101.974C78.1199 101.974 80.8729 99.2193 80.8729 95.826Z" stroke="#E4F0E4" stroke-width="3" stroke-linecap="round" stroke-linejoin="round"/>
<path d="M77.5523 95.8262C77.5523 94.2655 76.2888 93.0017 74.7261 93.0017C73.1634 93.0017 71.8999 94.2655 71.8999 95.8262C71.8999 97.387 73.1634 98.6508 74.7261 98.6508C76.2888 98.6508 77.5523 97.387 77.5523 95.8262Z" stroke="#E4F0E4" stroke-width="3" stroke-linecap="round" stroke-linejoin="round"/>
<path d="M106.982 93.8596L117.449 93.6826" stroke="#C6CBCD" stroke-width="3" stroke-linecap="round" stroke-linejoin="round"/>
<path d="M106.982 97.9552L117.449 97.7783" stroke="#C6CBCD" stroke-width="3" stroke-linecap="round" stroke-linejoin="round"/>
<path d="M84.4126 99.1111C85.6162 97.2597 87.1723 95.6294 88.9678 94.334C88.7483 96.0022 87.1523 97.3608 87.3186 99.029C87.3319 99.1743 87.3718 99.3386 87.4982 99.4208C87.5713 99.4713 87.6644 99.4839 87.7509 99.4903C88.3028 99.4903 88.7816 99.1238 89.3003 98.9342C89.3867 98.9026 89.4798 98.8773 89.5729 98.8962C89.9054 98.9594 89.8722 99.4587 90.0783 99.7241C90.2446 99.9452 90.5771 99.9768 90.8297 99.8757C91.0824 99.7746 91.2819 99.5661 91.4548 99.3576C92.7449 97.8474 93.5362 95.9201 93.6892 93.9359C93.7091 93.6705 93.6559 93.3167 93.3899 93.2598C93.1904 93.2156 93.0175 93.3862 92.8845 93.5378C92.5653 93.9043 92.2528 94.3025 92.1398 94.7764C92.0267 95.2503 92.1663 95.8189 92.5919 96.0591C93.2902 96.4635 94.2677 95.7874 94.9394 96.2234C95.1921 96.3876 95.3517 96.672 95.6177 96.8047C95.8903 96.9437 96.2361 96.8742 96.5021 96.7099C96.7614 96.5456 96.9609 96.2992 97.1471 96.0527C98.1712 94.6942 99.0623 93.2408 99.8004 91.7053C98.6633 93.7526 97.5129 95.8443 97.1338 98.1507C97.0939 98.4034 97.0673 98.694 97.2402 98.8899C97.4796 99.1616 97.9251 99.0543 98.2443 98.8773C98.5569 98.6941 98.8828 98.4476 99.2352 98.5045C99.3948 98.5234 99.5411 98.6056 99.7007 98.5993C99.9201 98.593 100.1 98.4223 100.253 98.2643C100.705 97.7968 101.157 97.3292 101.609 96.8616" stroke="#E4F0E4" stroke-width="3" stroke-linecap="round" stroke-linejoin="round"/>
<path d="M79.1912 120.712L79.1957 120.712L140.374 120.086L140.377 120.086C140.724 120.084 141.002 119.8 141 119.457L141 119.454L140.687 39.8484C140.687 39.8469 140.687 39.8454 140.687 39.844C140.683 39.6731 140.614 39.5086 140.491 39.387L140.491 39.3867C140.374 39.271 140.214 39.2064 140.053 39.2088L140.048 39.2089L78.8703 39.8345L78.8671 39.8345C78.5197 39.837 78.2416 40.1209 78.2442 40.4637L78.2442 40.4672L78.5566 120.073C78.5566 120.074 78.5567 120.076 78.5567 120.077C78.5606 120.251 78.6318 120.414 78.7461 120.528L79.1912 120.712ZM79.1912 120.712C79.0331 120.714 78.8717 120.652 78.7463 120.528L79.1912 120.712Z" fill="white" stroke="#79BE70" stroke-width="2"/>
<path d="M130.678 48.8407L84.3882 49.422V47.2988L130.678 46.7112V48.8407Z" stroke="#E4F0E4" stroke-width="4" stroke-linecap="round" stroke-linejoin="round"/>
<path d="M117.052 95.3346C119.187 93.5211 121.262 91.4169 123.197 89.4075C124.055 90.1089 128.989 94.4879 129.993 95.044" stroke="#E4F0E4" stroke-width="3" stroke-linecap="round" stroke-linejoin="round"/>
<path d="M127.315 88.6672C125.081 87.2013 127.568 84.6547 129.609 85.8111C132.176 87.2708 129.855 90.3291 127.315 88.6672Z" stroke="#E4F0E4" stroke-width="3" stroke-linecap="round" stroke-linejoin="round"/>
<path d="M133.579 95.327L133.386 83.1631L116.608 83.378L116.821 95.5356L133.579 95.327Z" stroke="#C6CBCD" stroke-width="3" stroke-linecap="round" stroke-linejoin="round"/>
<path d="M115.801 58.0925L130.677 57.9092" stroke="#C6CBCD" stroke-width="3" stroke-linecap="round" stroke-linejoin="round"/>
<path d="M84.3882 58.4906L112.378 58.1367" stroke="#C6CBCD" stroke-width="3" stroke-linecap="round" stroke-linejoin="round"/>
<path d="M105.88 64.8863L130.678 64.5703" stroke="#C6CBCD" stroke-width="3" stroke-linecap="round" stroke-linejoin="round"/>
<path d="M84.3882 65.157L101.319 64.9421" stroke="#C6CBCD" stroke-width="3" stroke-linecap="round" stroke-linejoin="round"/>
<path d="M123.586 71.318L130.675 71.2295" stroke="#C6CBCD" stroke-width="3" stroke-linecap="round" stroke-linejoin="round"/>
<path d="M84.3882 71.8172L117.325 71.4001" stroke="#C6CBCD" stroke-width="3" stroke-linecap="round" stroke-linejoin="round"/>
<path d="M100.933 78.2678L130.678 77.895" stroke="#C6CBCD" stroke-width="3" stroke-linecap="round" stroke-linejoin="round"/>
<path d="M84.3882 78.4769L96.0654 78.3315" stroke="#C6CBCD" stroke-width="3" stroke-linecap="round" stroke-linejoin="round"/>
<path d="M84.3882 85.1379L110.21 84.8157" stroke="#C6CBCD" stroke-width="3" stroke-linecap="round" stroke-linejoin="round"/>
<path d="M99.7764 91.6472L110.449 91.4702" stroke="#C6CBCD" stroke-width="3" stroke-linecap="round" stroke-linejoin="round"/>
<path d="M84.3882 91.8039L96.0588 91.6838" stroke="#C6CBCD" stroke-width="3" stroke-linecap="round" stroke-linejoin="round"/>
<path d="M97.4989 106.145C97.4989 102.752 94.7459 99.9966 91.3544 99.9966C87.9564 99.9966 85.21 102.752 85.21 106.145C85.21 109.538 87.9564 112.293 91.3544 112.293C94.7459 112.293 97.4989 109.538 97.4989 106.145Z" stroke="#E4F0E4" stroke-width="3" stroke-linecap="round" stroke-linejoin="round"/>
<path d="M94.1793 106.145C94.1793 104.584 92.9158 103.32 91.3531 103.32C89.7903 103.32 88.5269 104.584 88.5269 106.145C88.5269 107.705 89.7903 108.969 91.3531 108.969C92.9158 108.969 94.1793 107.705 94.1793 106.145Z" stroke="#E4F0E4" stroke-width="3" stroke-linecap="round" stroke-linejoin="round"/>
<path d="M123.592 104.185L134.059 104.009" stroke="#C6CBCD" stroke-width="3" stroke-linecap="round" stroke-linejoin="round"/>
<path d="M123.591 108.279L134.058 108.102" stroke="#C6CBCD" stroke-width="3" stroke-linecap="round" stroke-linejoin="round"/>
<path d="M101.021 109.436C102.224 107.585 103.78 105.955 105.576 104.659C105.356 106.327 103.76 107.686 103.927 109.354C103.94 109.5 103.98 109.664 104.106 109.746C104.179 109.797 104.272 109.809 104.359 109.815C104.911 109.815 105.39 109.449 105.908 109.259C105.995 109.228 106.088 109.202 106.181 109.221C106.513 109.285 106.48 109.784 106.686 110.049C106.852 110.27 107.185 110.302 107.438 110.201C107.69 110.1 107.89 109.891 108.063 109.683C109.353 108.173 110.144 106.245 110.297 104.261C110.317 103.996 110.264 103.642 109.998 103.585C109.798 103.541 109.625 103.711 109.492 103.863C109.173 104.23 108.861 104.628 108.748 105.102C108.635 105.575 108.774 106.144 109.2 106.384C109.898 106.789 110.876 106.113 111.547 106.549C111.8 106.713 111.96 106.997 112.226 107.13C112.498 107.269 112.844 107.199 113.11 107.035C113.369 106.871 113.569 106.624 113.755 106.378C114.779 105.019 115.67 103.566 116.408 102.031C115.271 104.078 114.121 106.169 113.742 108.476C113.702 108.729 113.675 109.019 113.848 109.215C114.088 109.487 114.533 109.379 114.852 109.203C115.165 109.019 115.491 108.773 115.843 108.83C116.003 108.849 116.149 108.931 116.309 108.924C116.528 108.918 116.708 108.748 116.861 108.59C117.313 108.122 117.765 107.654 118.217 107.187" stroke="#E4F0E4" stroke-width="3" stroke-linecap="round" stroke-linejoin="round"/>
</svg>
