<svg width="187" height="139" viewBox="0 0 187 139" fill="none" xmlns="http://www.w3.org/2000/svg">
<rect width="187" height="139" fill="white"/>
<path d="M98.1466 47.1125C93.8829 52.3973 96.873 61.8954 104.834 68.3302C112.795 74.7595 122.708 75.6907 126.972 70.4059" stroke="#6E7072" stroke-width="2.17627" stroke-linecap="round" stroke-linejoin="round"/>
<path d="M124.986 44.4821C117.025 38.0473 107.117 37.1216 102.848 42.4064C98.5842 47.6912 101.58 57.1948 109.541 63.624C117.502 70.0533 127.409 70.9845 131.679 65.6997C135.942 60.415 132.946 50.9114 124.986 44.4821Z" stroke="#6E7072" stroke-width="2.17627" stroke-linecap="round" stroke-linejoin="round"/>
<path d="M113.806 51.2593C112.948 52.3252 113.548 54.2495 115.158 55.5511C116.768 56.847 118.771 57.0378 119.635 55.9662" fill="white"/>
<path d="M113.806 51.2593C112.948 52.3252 113.548 54.2495 115.158 55.5511C116.768 56.847 118.771 57.0378 119.635 55.9662" stroke="#6E7072" stroke-width="2.17627" stroke-linecap="round" stroke-linejoin="round"/>
<path d="M120.03 55.574L128.378 47.2261L120.03 55.574Z" fill="white"/>
<path d="M120.03 55.574L128.378 47.2261" stroke="#6E7072" stroke-width="2.17627" stroke-linecap="round" stroke-linejoin="round"/>
<path d="M114.181 50.995L122.148 43.0229L114.181 50.995Z" fill="white"/>
<path d="M114.181 50.995L122.148 43.0229" stroke="#6E7072" stroke-width="2.17627" stroke-linecap="round" stroke-linejoin="round"/>
<path d="M141.002 39.0127C141.002 32.9313 136.07 28 129.983 28C123.902 28 118.971 32.9313 118.971 39.0127C118.971 45.0998 123.902 50.0311 129.983 50.0311C136.07 50.0311 141.002 45.0998 141.002 39.0127Z" fill="white"/>
<path d="M141.002 39.0127C141.002 32.9313 136.07 28 129.983 28C123.902 28 118.971 32.9313 118.971 39.0127C118.971 45.0998 123.902 50.0311 129.983 50.0311C136.07 50.0311 141.002 45.0998 141.002 39.0127Z" stroke="#6E7072" stroke-width="2.17627" stroke-linecap="round" stroke-linejoin="round"/>
<path d="M98.0283 47.124L102.864 42.2881" stroke="#6E7072" stroke-width="2.17627" stroke-linecap="round" stroke-linejoin="round"/>
<path d="M126.431 71.0969L131.267 66.261" stroke="#6E7072" stroke-width="2.17627" stroke-linecap="round" stroke-linejoin="round"/>
<path d="M104.184 84.0559C104.184 75.1989 96.9998 68.0205 88.1428 68.0205C79.2913 68.0205 72.1074 75.1989 72.1074 84.0559C72.1074 92.9129 79.2913 100.097 88.1428 100.097C96.9998 100.097 104.184 92.9129 104.184 84.0559Z" stroke="#79BE70" stroke-width="2" stroke-linecap="round" stroke-linejoin="round"/>
<path d="M95.5279 84.0554C95.5279 79.9803 92.2258 76.6782 88.1507 76.6782C84.0756 76.6782 80.7681 79.9803 80.7681 84.0554C80.7681 88.1305 84.0756 91.438 88.1507 91.438C92.2258 91.438 95.5279 88.1305 95.5279 84.0554Z" stroke="#79BE70" stroke-width="2" stroke-linecap="round" stroke-linejoin="round"/>
<path d="M83.1987 73.6754C83.9939 72.9465 86.179 72.4081 87.2558 72.3143C89.3596 72.1265 90.5719 72.3143 92.4974 73.068" stroke="#79BE70" stroke-width="2" stroke-linecap="round" stroke-linejoin="round"/>
<path d="M96.1489 76.1704C97.4521 77.5067 98.4184 79.1688 98.9264 80.9634" stroke="#79BE70" stroke-width="2" stroke-linecap="round" stroke-linejoin="round"/>
<path d="M97.8998 89.4563C97.2427 91.2122 95.9893 92.7197 94.4542 93.7964C92.9246 94.8732 91.1135 95.5302 89.2637 95.8284" stroke="#79BE70" stroke-width="2" stroke-linecap="round" stroke-linejoin="round"/>
<path d="M85.6919 95.6085C84.9686 95.5367 84.2452 95.4649 83.5273 95.3987" stroke="#79BE70" stroke-width="2" stroke-linecap="round" stroke-linejoin="round"/>
<path d="M79.2758 91.8247C79.0881 91.6038 78.8948 91.383 78.707 91.1621" stroke="#79BE70" stroke-width="2" stroke-linecap="round" stroke-linejoin="round"/>
<path d="M76.7054 83.8179C76.2636 82.8681 76.4072 81.7527 76.6943 80.7422C77.1526 79.1244 77.9699 77.6114 79.0632 76.3303" stroke="#79BE70" stroke-width="2" stroke-linecap="round" stroke-linejoin="round"/>
<path d="M110.832 100.33L117.767 110.12" stroke="#79BE70" stroke-width="2" stroke-linecap="round" stroke-linejoin="round"/>
<path d="M114.984 91.4458L127.127 91.3464" stroke="#79BE70" stroke-width="2" stroke-linecap="round" stroke-linejoin="round"/>
<path d="M113.695 96.0625L128.416 104.367" stroke="#79BE70" stroke-width="2" stroke-linecap="round" stroke-linejoin="round"/>
<path d="M65.3394 72.5029L56.3794 63.9699" stroke="#79BE70" stroke-width="2" stroke-linecap="round" stroke-linejoin="round"/>
<path d="M63.286 81.8167L51.4883 84.6449" stroke="#79BE70" stroke-width="2" stroke-linecap="round" stroke-linejoin="round"/>
<path d="M63.5063 77.5315L47.2943 71.7493" stroke="#79BE70" stroke-width="2" stroke-linecap="round" stroke-linejoin="round"/>
</svg>
