<svg width="18" height="18" fill="none" xmlns="http://www.w3.org/2000/svg"><g clip-path="url(#a)"><path d="M15.75 16.839h-1.16V2.613a.58.58 0 0 0-.58-.58H9.652V.58A.58.58 0 0 0 9.073 0H5.044a.58.58 0 0 0-.58.58v1.452h-.472a.58.58 0 0 0-.58.58V16.84H2.25a.58.58 0 0 0 0 1.161h13.5a.58.58 0 0 0 0-1.161ZM5.625 1.16h2.867v.871H5.625v-.87ZM7.84 16.84v-2.47h2.322v2.468H7.84Zm3.484 0v-2.47h.254a.58.58 0 0 0 0-1.161H6.423a.58.58 0 0 0 0 1.161h.255v2.468H4.572V3.194h8.854v13.645h-2.104ZM8.165 4.899c0 .32-.26.58-.58.58h-.653a.58.58 0 0 1 0-1.16h.653c.32 0 .58.26.58.58Zm3.448 0c0 .32-.26.58-.58.58h-.654a.58.58 0 0 1 0-1.16h.653a.58.58 0 0 1 .581.58ZM8.165 7.077c0 .32-.26.58-.58.58h-.653a.58.58 0 0 1 0-1.161h.653c.32 0 .58.26.58.58Zm3.448 0c0 .32-.26.58-.58.58h-.654a.58.58 0 0 1 0-1.161h.653a.58.58 0 0 1 .581.58ZM8.165 9.254c0 .32-.26.58-.58.58h-.653a.58.58 0 0 1 0-1.16h.653c.32 0 .58.26.58.58Zm3.448 0c0 .32-.26.58-.58.58h-.654a.58.58 0 0 1 0-1.16h.653a.58.58 0 0 1 .581.58Zm-3.448 2.178c0 .32-.26.58-.58.58h-.653a.58.58 0 0 1 0-1.161h.653c.32 0 .58.26.58.58Zm3.448 0c0 .32-.26.58-.58.58h-.654a.58.58 0 0 1 0-1.161h.653a.58.58 0 0 1 .581.58Z" fill="#000"/></g><defs><clipPath id="a"><path fill="#fff" d="M0 0h18v18H0z"/></clipPath></defs></svg>