<svg width="19" height="16" fill="none" xmlns="http://www.w3.org/2000/svg"><path fill-rule="evenodd" clip-rule="evenodd" d="M1.306 6.888C6.406 4.63 9.807 3.14 11.51 2.422 16.368.37 17.377.012 18.035 0c.145-.002.469.034.678.207.177.146.226.343.25.481.023.139.052.454.029.7-.264 2.811-1.403 9.633-1.983 12.781-.245 1.333-.728 1.78-1.195 1.823-1.016.095-1.788-.682-2.772-1.338-1.54-1.025-2.41-1.664-3.904-2.665-1.728-1.156-.608-1.792.377-2.831.257-.272 4.734-4.41 4.82-4.785.011-.047.021-.222-.081-.314-.102-.092-.253-.06-.362-.036-.155.036-2.614 1.688-7.38 4.957-.698.487-1.33.724-1.897.712-.625-.014-1.826-.359-2.72-.654C.8 8.676-.07 8.485.005 7.87c.04-.32.473-.647 1.301-.982Z" fill="#000"/></svg>